<svg width="300" height="300" viewBox="0 0 300 300" fill="none" xmlns="http://www.w3.org/2000/svg">
<path d="M228.948 71.0527L157.896 63.1582L71.0535 71.0527L63.1575 150.001L71.052 228.949L150 238.817L228.948 228.949L236.842 148.028L228.948 71.0527Z" fill="white"/>
<path d="M103.441 193.539C97.5404 189.552 93.4544 183.73 91.2239 176.032L104.922 170.388C106.165 175.125 108.336 178.795 111.435 181.401C114.514 184.006 118.264 185.289 122.646 185.289C127.126 185.289 130.975 183.927 134.191 181.203C137.407 178.479 139.027 175.005 139.027 170.802C139.027 166.5 137.329 162.985 133.935 160.263C130.54 157.54 126.277 156.177 121.185 156.177H113.271V142.618H120.375C124.756 142.618 128.448 141.435 131.448 139.066C134.448 136.698 135.948 133.461 135.948 129.336C135.948 125.665 134.605 122.743 131.922 120.553C129.238 118.363 125.842 117.258 121.717 117.258C117.691 117.258 114.493 118.324 112.125 120.475C109.756 122.626 108.039 125.271 106.954 128.389L93.3959 122.745C95.1914 117.652 98.4884 113.152 103.323 109.264C108.159 105.376 114.336 103.422 121.836 103.422C127.381 103.422 132.375 104.488 136.797 106.639C141.217 108.79 144.691 111.771 147.198 115.56C149.704 119.368 150.948 123.633 150.948 128.368C150.948 133.204 149.784 137.289 147.454 140.644C145.125 144 142.263 146.565 138.868 148.362V149.17C143.349 151.045 147 153.907 149.881 157.756C152.743 161.605 154.183 166.204 154.183 171.573C154.183 176.941 152.821 181.737 150.097 185.941C147.373 190.146 143.604 193.461 138.828 195.868C134.032 198.276 128.644 199.5 122.664 199.5C115.737 199.519 109.342 197.526 103.441 193.539Z" fill="#1A73E8"/>
<path d="M187.5 125.566L172.539 136.441L165.019 125.033L192 105.572H202.342V197.368H187.5V125.566Z" fill="#1A73E8"/>
<path d="M228.948 300L300 228.948L264.474 213.159L228.948 228.948L213.159 264.474L228.948 300Z" fill="#EA4335"/>
<path d="M55.2629 264.474L71.0519 300H228.946V228.948H71.0519L55.2629 264.474Z" fill="#34A853"/>
<path d="M23.6835 0C10.599 0 0 10.599 0 23.6835V228.946L35.526 244.735L71.052 228.946V71.052H228.946L244.735 35.526L228.948 0H23.6835Z" fill="#4285F4"/>
<path d="M0 228.948V276.317C0 289.403 10.599 300 23.6835 300H71.052V228.948H0Z" fill="#188038"/>
<path d="M228.948 71.0517V228.946H300V71.0517L264.474 55.2627L228.948 71.0517Z" fill="#FBBC04"/>
<path d="M300 71.052V23.6835C300 10.5975 289.401 0 276.316 0H228.948V71.052H300Z" fill="#1967D2"/>
</svg>
