<?xml version="1.0" encoding="utf-8"?>
<!-- Generator: Adobe Illustrator 23.0.1, SVG Export Plug-In . SVG Version: 6.00 Build 0)  -->
<svg version="1.1" id="Livello_1" xmlns="http://www.w3.org/2000/svg" xmlns:xlink="http://www.w3.org/1999/xlink" x="0px" y="0px"
	 width="312px" height="311.745px" viewBox="0 0 312 311.745" enable-background="new 0 0 312 311.745" xml:space="preserve">
<g>
	<path fill="#EA4335" d="M312,72.663l-34.894,6.979l-37.769-6.979l-8.21-38.59L239.337,0L312,72.663z"/>
	<path fill="#34A853" d="M239.337,72.663v111.663H110.021l-37.358,37.358l-4.926,17.242l4.926,18.063v43.105
		c0,10.263,12.726,15.6,20.116,8.211l51.316-51.316h146.558c11.905,0,21.347-9.442,21.347-21.347V72.663H239.337z"/>
	<path fill="#4285F4" d="M72.663,184.325l-39,5.337L0,184.325V72.662l36.537-5.747l36.126,5.747V184.325z"/>
	<path fill="#1967D2" d="M72.663,72.663H0V21.347C0,9.442,9.442,0,21.347,0h51.316l6.569,34.484L72.663,72.663z"/>
	<path fill="#188038" d="M72.663,184.327v72.663H21.347C9.442,256.99,0,247.548,0,235.642v-51.316H72.663z"/>
	<path fill="#FBBC04" d="M239.337,0H72.663v72.663h166.674V0z"/>
</g>
</svg>
