<svg width="300" height="300" viewBox="0 0 300 300" fill="none" xmlns="http://www.w3.org/2000/svg">
<path d="M150.003 224.997C191.427 224.997 225.006 191.416 225.006 149.992C225.006 108.568 191.427 74.9873 150.003 74.9873C108.58 74.9873 75 108.568 75 149.992C75 191.416 108.58 224.997 150.003 224.997Z" fill="white"/>
<path d="M85.0472 187.513L20.1024 75.0244C6.93386 97.826 0 123.692 0 150.024C0 176.357 6.93071 202.223 20.0976 225.024C33.2646 247.826 52.2031 266.761 75.0079 279.922C97.8126 293.083 123.682 300.009 150.013 300.001L214.957 187.513V187.495C208.38 198.903 198.913 208.377 187.512 214.965C176.11 221.552 163.175 225.021 150.008 225.023C136.84 225.025 123.904 221.559 112.501 214.976C101.097 208.391 91.6289 198.921 85.0472 187.516V187.513Z" fill="#229342"/>
<path d="M214.953 187.507L150.009 299.995C176.34 300 202.208 293.069 225.011 279.906C247.814 266.742 266.75 247.805 279.913 225C293.076 202.196 300.004 176.328 300 149.997C299.995 123.666 293.058 97.8 279.887 75H149.998L149.983 75.0111C163.15 75.0048 176.087 78.4657 187.493 85.0457C198.899 91.6268 208.37 101.093 214.956 112.496C221.541 123.899 225.008 136.835 225.008 150.003C225.008 163.17 221.54 176.106 214.954 187.509L214.953 187.507Z" fill="#FBC116"/>
<path d="M150.003 209.387C182.797 209.387 209.381 182.803 209.381 150.008C209.381 117.213 182.797 90.6299 150.003 90.6299C117.209 90.6299 90.6252 117.214 90.6252 150.008C90.6252 182.802 117.209 209.387 150.003 209.387Z" fill="#1A73E8"/>
<path d="M150.003 75.0047H279.891C266.729 52.2 247.795 33.2614 224.992 20.0945C202.19 6.92847 176.323 -0.00199855 149.992 4.32307e-07C123.661 0.00157524 97.7953 6.93548 74.9953 20.1056C52.1945 33.2749 33.2629 52.2151 20.104 75.022L85.0489 187.51L85.0662 187.52C78.4769 176.119 75.0056 163.184 75.0014 150.017C74.9973 136.849 78.4604 123.912 85.0426 112.507C91.6237 101.102 101.095 91.6315 112.498 85.0488C123.901 78.4661 136.838 75 150.006 75.0032L150.003 75.0047Z" fill="#E33B2E"/>
</svg>
