<svg width="373" height="300" viewBox="0 0 373 300" fill="none" xmlns="http://www.w3.org/2000/svg">
<path d="M236.541 82.6108H247.911L280.314 50.2074L281.906 36.4501C263.343 20.066 240.91 8.68452 216.725 3.38082C192.541 -1.92288 167.404 -0.973695 143.688 6.13871C119.973 13.2511 98.4617 26.2919 81.1874 44.0293C63.913 61.7666 51.4456 83.6149 44.9629 107.51C48.5728 106.031 52.5716 105.791 56.3325 106.828L121.139 96.1407C121.139 96.1407 124.437 90.6832 126.142 91.0243C140.028 75.7739 159.218 66.4079 179.784 64.8438C200.35 63.2797 220.736 69.6358 236.768 82.6108H236.541Z" fill="#EA4335"/>
<path d="M326.473 107.508C319.025 80.0803 303.733 55.4231 282.472 36.5615L236.994 82.04C246.472 89.7846 254.068 99.5804 259.208 110.688C264.349 121.797 266.9 133.927 266.669 146.165V154.237C271.984 154.237 277.247 155.284 282.158 157.318C287.069 159.352 291.531 162.334 295.289 166.092C299.048 169.851 302.029 174.313 304.063 179.224C306.098 184.134 307.145 189.398 307.145 194.713C307.145 200.028 306.098 205.292 304.063 210.202C302.029 215.113 299.048 219.575 295.289 223.334C291.531 227.092 287.069 230.074 282.158 232.108C277.247 234.142 271.984 235.189 266.669 235.189H185.717L177.645 243.375V291.923L185.717 299.996H266.669C289.274 300.172 311.336 293.067 329.591 279.732C347.845 266.398 361.323 247.542 368.03 225.954C374.737 204.365 374.318 181.192 366.834 159.86C359.35 138.529 345.198 120.173 326.473 107.508Z" fill="#4285F4"/>
<path d="M104.651 299.545H185.603V234.738H104.651C98.8835 234.737 93.1837 233.496 87.9376 231.1L76.568 234.624L43.9371 267.028L41.0947 278.397C59.3934 292.215 81.7216 299.644 104.651 299.545Z" fill="#34A853"/>
<path d="M104.654 89.319C82.7198 89.4501 61.3743 96.4285 43.5989 109.28C25.8234 122.131 12.5055 140.213 5.50541 161C-1.49469 181.788 -1.82747 204.242 4.55356 225.228C10.9346 246.214 23.7108 264.683 41.0976 278.055L88.0541 231.098C82.087 228.402 76.8629 224.299 72.8302 219.14C68.7976 213.981 66.0767 207.921 64.901 201.48C63.7253 195.038 64.13 188.407 66.0803 182.157C68.0306 175.906 71.4683 170.222 76.0984 165.592C80.7285 160.961 86.4127 157.524 92.6635 155.573C98.9143 153.623 105.545 153.218 111.986 154.394C118.428 155.57 124.488 158.291 129.647 162.323C134.806 166.356 138.909 171.58 141.605 177.547L188.562 130.591C178.706 117.706 166.003 107.276 151.447 100.116C136.891 92.9567 120.875 89.2612 104.654 89.319Z" fill="#FBBC05"/>
</svg>
