<?xml version="1.0" encoding="UTF-8"?>
<svg xmlns="http://www.w3.org/2000/svg" xmlns:xlink="http://www.w3.org/1999/xlink" width="512px" height="578px" viewBox="0 0 512 577" version="1.1">
<g id="surface1">
<path style=" stroke:none;fill-rule:nonzero;fill:rgb(0%,50.196081%,95.686275%);fill-opacity:1;" d="M 0 513.132812 L 0 63.976562 C 0 14.804688 52.734375 -15.9375 94.941406 8.65625 L 480.355469 233.226562 C 522.546875 257.816406 522.546875 319.292969 480.355469 343.871094 L 94.941406 568.425781 C 52.75 593.046875 0 562.300781 0 513.132812 Z M 0 513.132812 "/>
<path style=" stroke:none;fill-rule:nonzero;fill:rgb(74.509805%,96.862745%,100%);fill-opacity:1;" d="M 379.847656 174.664062 L 184.605469 289.503906 L 147.558594 222.445312 C 142.78125 213.800781 134.953125 207.554688 125.515625 204.882812 C 122.246094 203.949219 118.886719 203.476562 115.539062 203.476562 C 109.316406 203.476562 103.132812 205.117188 97.644531 208.226562 L 0 263.613281 L 0 340.105469 L 1.589844 339.199219 L 104.265625 280.964844 L 141.546875 348.433594 C 146.300781 357.039062 154.441406 363.476562 163.851562 366.074219 C 166.976562 366.941406 170.21875 367.375 173.476562 367.375 C 179.988281 367.375 186.378906 365.644531 191.960938 362.363281 L 445.777344 213.054688 Z M 379.847656 174.664062 "/>
</g>
</svg>
