<svg width="400" height="300" viewBox="0 0 400 300" fill="none" xmlns="http://www.w3.org/2000/svg">
<path d="M27.2656 300.001H90.8855V145.495L0 77.3311V272.735C0 287.822 12.2241 300.001 27.2656 300.001Z" fill="#4285F4"/>
<path d="M309.011 300.001H372.631C387.718 300.001 399.896 287.776 399.896 272.735V77.3311L309.011 145.495" fill="#34A853"/>
<path d="M309.011 27.343V145.494L399.896 77.33V40.9758C399.896 7.2573 361.406 -11.965 334.459 8.25704" fill="#FBBC04"/>
<path d="M90.8862 145.495V27.3438L199.949 109.141L309.011 27.3438V145.495L199.949 227.292" fill="#EA4335"/>
<path d="M0 40.9758V77.33L90.8855 145.494V27.343L65.4376 8.25704C38.4446 -11.965 0 7.2573 0 40.9758Z" fill="#C5221F"/>
</svg>
