<svg width="210" height="300" viewBox="0 0 210 300" fill="none" xmlns="http://www.w3.org/2000/svg">
<path d="M57.5625 222.241C66.8184 233.817 76.2453 248.372 81.1786 257.164C87.1864 268.593 89.6774 276.311 94.1467 290.134C96.7598 297.705 99.2509 300 104.477 300C110.192 300 112.805 296.142 114.808 290.134C118.984 277.166 122.208 267.299 127.312 257.897C146.996 220.775 179.086 194.399 197.159 158.255C197.159 158.255 209.052 136.177 209.052 105.259C209.052 76.4411 197.33 56.415 197.33 56.415L57.6358 222.485L57.5625 222.241Z" fill="#34A853"/>
<path d="M10.1839 154.347C21.4424 179.99 42.9094 202.458 57.5626 222.24L135.225 130.169C135.225 130.169 124.259 144.529 104.453 144.529C82.3754 144.529 64.4008 126.945 64.4008 104.721C64.4008 89.4331 73.5102 78.834 73.5102 78.834C16.3627 87.3328 19.5375 101.18 10.0129 154.298L10.1839 154.347Z" fill="#FBBC04"/>
<path d="M136.202 4.81152C162.089 13.1394 184.069 30.6989 197.257 56.342L135.225 130.341C135.225 130.341 144.334 119.693 144.334 104.453C144.334 81.7653 125.187 64.6455 104.526 64.6455C84.9154 64.6455 73.7545 78.8346 73.7545 78.8346C78.5168 67.9913 127.727 8.49925 136.275 4.83595L136.202 4.81152Z" fill="#4285F4"/>
<path d="M24.3488 37.3657C39.7835 19.0003 66.8431 0 104.209 0C122.257 0 135.957 4.78671 135.957 4.78671L73.6813 78.7854C69.4807 76.5068 28.5006 44.5946 24.3488 37.268V37.3657Z" fill="#1A73E8"/>
<path d="M10.184 154.347C10.184 154.347 0 134.125 0 105.014C0 77.4173 10.7945 53.2395 24.422 37.6094L73.7545 79.1268L10.2572 154.347H10.184Z" fill="#EA4335"/>
</svg>
