<svg width="364" height="300" viewBox="0 0 364 300" fill="none" xmlns="http://www.w3.org/2000/svg">
<path d="M277.273 208.981V198.394V183.774V114.957V100.337L288.538 76.8937L344.862 32.2764C352.372 25.9746 363.637 31.2682 363.637 41.0991V254.355C363.637 264.185 352.122 269.479 344.612 263.177L277.273 208.981Z" fill="#00AC47"/>
<path d="M90.9091 0L0 90.9091H90.9091V0Z" fill="#EA4335"/>
<path d="M90.9091 90.9092H0V209.091H90.9091V90.9092Z" fill="#2684FC"/>
<path d="M0 209.091V269.697C0 286.364 13.6364 300 30.3032 300H90.9091V209.091H0Z" fill="#0066DA"/>
<path d="M288.636 29.9555C288.636 13.48 275.29 0 258.977 0H199.659H90.9092V90.9091H202.273V150L288.636 147.28V29.9555Z" fill="#FFBA00"/>
<path d="M202.273 209.091H90.9092V300H199.659H258.977C275.29 300 288.636 286.54 288.636 270.088V150H202.273V209.091Z" fill="#00AC47"/>
<path d="M288.636 77.2725V218.182L202.273 150L288.636 77.2725Z" fill="#00832D"/>
</svg>
