<?xml version="1.0" encoding="UTF-8" standalone="no"?>
<svg
   xmlns:dc="http://purl.org/dc/elements/1.1/"
   xmlns:cc="http://creativecommons.org/ns#"
   xmlns:rdf="http://www.w3.org/1999/02/22-rdf-syntax-ns#"
   xmlns:svg="http://www.w3.org/2000/svg"
   xmlns="http://www.w3.org/2000/svg"
   xmlns:sodipodi="http://sodipodi.sourceforge.net/DTD/sodipodi-0.dtd"
   xmlns:inkscape="http://www.inkscape.org/namespaces/inkscape"
   viewBox="0 0 416 469.334"
   version="1.1"
   id="svg9"
   sodipodi:docname="YouTube_Studio_gradient.svg"
   inkscape:version="1.0.2-2 (e86c870879, 2021-01-15)">
  <metadata
     id="metadata15">
    <rdf:RDF>
      <cc:Work
         rdf:about="">
        <dc:format>image/svg+xml</dc:format>
        <dc:type
           rdf:resource="http://purl.org/dc/dcmitype/StillImage" />
        <dc:title></dc:title>
      </cc:Work>
    </rdf:RDF>
  </metadata>
  <defs
     id="defs13" />
  <sodipodi:namedview
     pagecolor="#ffffff"
     bordercolor="#666666"
     borderopacity="1"
     objecttolerance="10"
     gridtolerance="10"
     guidetolerance="10"
     inkscape:pageopacity="0"
     inkscape:pageshadow="2"
     inkscape:window-width="1920"
     inkscape:window-height="1009"
     id="namedview11"
     showgrid="false"
     inkscape:zoom="1.625"
     inkscape:cx="218.64103"
     inkscape:cy="238.67424"
     inkscape:window-x="-8"
     inkscape:window-y="-8"
     inkscape:window-maximized="1"
     inkscape:current-layer="svg9" />
  <g
     id="surface1"
     transform="translate(-48,-21.333008)">
    <path
       style="fill:#ff0033;fill-opacity:1;fill-rule:nonzero;stroke:none"
       d="m 237.44141,25.8125 c 10.23828,-5.972656 26.8789,-5.972656 37.11718,0 l 170.88282,98.98828 C 455.67969,130.77344 464,145.49219 464,157.44141 v 197.11718 c 0,11.94922 -8.32031,26.66797 -18.55859,32.64063 L 274.55859,486.1875 c -10.23828,5.97266 -26.8789,5.97266 -37.11718,0 L 66.558594,387.19922 C 56.320312,381.22656 48,366.50781 48,354.55859 V 157.44141 c 0,-11.94922 8.320312,-26.66797 18.558594,-32.64063 z m 0,0"
       id="path2" />
    <path
       style="fill:#ffffff;fill-opacity:1;fill-rule:nonzero;stroke:none"
       d="M 213.33203,320 320,256 213.33203,192 Z m 0,0"
       id="path4" />
    <path
       style="fill:#ffffff;fill-opacity:1;fill-rule:nonzero;stroke:none"
       d="m 256,128 c 2.34766,0 4.05469,0.64062 4.48047,0.85156 l 104.32031,60.16016 c 1.06641,0.64062 2.98438,4.26953 2.98438,7.89453 v 120.96094 c 0,3.625 -1.91797,7.2539 -2.98438,7.89453 l -104.53516,60.37109 c -0.64062,0.21485 -2.13281,0.85547 -4.48046,0.85547 -2.34375,0 -4.05079,-0.64062 -4.47657,-0.85547 L 146.77344,325.76172 c -1.06641,-0.64063 -3.19922,-4.26953 -3.19922,-7.89453 v -120.7461 c 0,-3.6289 2.13281,-7.2539 2.98437,-7.89453 l 104.53516,-60.375 C 252.16016,128.64062 253.65234,128 256,128 m 0,-21.33203 c -5.33203,0 -10.87891,1.27734 -15.14844,3.83984 l -104.53125,60.16016 c -8.53515,4.90625 -13.65234,16.42578 -13.65234,26.45312 v 120.95703 c 0,10.02735 5.11719,21.33594 13.65234,26.45704 l 104.53125,60.37109 c 4.26953,2.55859 9.81641,3.83984 15.14844,3.83984 5.33203,0 10.87891,-1.28125 15.14844,-3.83984 l 104.53125,-60.37109 c 8.74609,-5.1211 13.65234,-16.42969 13.65234,-26.45704 V 197.12109 c 0,-10.02734 -4.90625,-21.33593 -13.65234,-26.45312 L 271.14844,110.50781 c -4.26953,-2.5625 -9.60157,-3.83984 -15.14844,-3.83984 z m 0,0"
       id="path6" />
  </g>
</svg>
