<?xml version="1.0" encoding="UTF-8"?>
<svg xmlns="http://www.w3.org/2000/svg" xmlns:xlink="http://www.w3.org/1999/xlink" width="512px" height="512px" viewBox="0 0 512 512" version="1.1">
<defs>
<linearGradient id="linear0" gradientUnits="userSpaceOnUse" x1="19.799999" y1="14.4" x2="36.07" y2="54.57" gradientTransform="matrix(10.24,0,0,10.24,0,0)">
<stop offset="0" style="stop-color:rgb(100%,84.705883%,41.568628%);stop-opacity:1;"/>
<stop offset="1" style="stop-color:rgb(100%,71.372551%,23.529412%);stop-opacity:1;"/>
</linearGradient>
<radialGradient id="radial0" gradientUnits="userSpaceOnUse" cx="0" cy="0" fx="0" fy="0" r="1" gradientTransform="matrix(61.737293,150.906044,-150.906044,61.737293,81.100649,317.877274)">
<stop offset="0.88" style="stop-color:rgb(81.960785%,45.09804%,4.705882%);stop-opacity:1;"/>
<stop offset="1" style="stop-color:rgb(81.960785%,45.09804%,4.705882%);stop-opacity:0;"/>
</radialGradient>
<radialGradient id="radial1" gradientUnits="userSpaceOnUse" cx="0" cy="0" fx="0" fy="0" r="1" gradientTransform="matrix(61.633022,150.651084,-151.248184,61.877246,407.551992,185.446406)">
<stop offset="0.88" style="stop-color:rgb(81.960785%,45.09804%,4.705882%);stop-opacity:1;"/>
<stop offset="1" style="stop-color:rgb(81.960785%,45.09804%,4.705882%);stop-opacity:0;"/>
</radialGradient>
<linearGradient id="linear1" gradientUnits="userSpaceOnUse" x1="18.09" y1="10.16" x2="29.389999" y2="38.060001" gradientTransform="matrix(10.24,0,0,10.24,0,0)">
<stop offset="0" style="stop-color:rgb(100%,90.196079%,53.333336%);stop-opacity:1;"/>
<stop offset="1" style="stop-color:rgb(100%,73.725492%,6.666667%);stop-opacity:1;"/>
<stop offset="1" style="stop-color:rgb(100%,66.274512%,9.803922%);stop-opacity:1;"/>
</linearGradient>
<linearGradient id="linear2" gradientUnits="userSpaceOnUse" x1="20.6" y1="14.94" x2="27.870001" y2="32.880001" gradientTransform="matrix(10.24,0,0,10.24,0,0)">
<stop offset="0" style="stop-color:rgb(26.666668%,26.666668%,26.666668%);stop-opacity:1;"/>
<stop offset="1" style="stop-color:rgb(13.333334%,13.333334%,13.333334%);stop-opacity:1;"/>
</linearGradient>
<linearGradient id="linear3" gradientUnits="userSpaceOnUse" x1="54.07" y1="0.08" x2="62.23" y2="20.23" gradientTransform="matrix(10.24,0,0,10.24,0,0)">
<stop offset="0" style="stop-color:rgb(26.666668%,26.666668%,26.666668%);stop-opacity:1;"/>
<stop offset="1" style="stop-color:rgb(13.333334%,13.333334%,13.333334%);stop-opacity:1;"/>
</linearGradient>
</defs>
<g id="surface1">
<path style=" stroke:none;fill-rule:evenodd;fill:rgb(30.588236%,10.588235%,73.725492%);fill-opacity:1;" d="M 184.933594 512 L 348.160156 512 C 412.085938 512 470.175781 474.820312 496.945312 416.769531 L 370.175781 329.011719 L 282.113281 352.257812 L 209.40625 394.035156 L 184.832031 512 Z M 348.160156 0 L 163.839844 0 C 73.632812 0 0.394531 72.917969 0 163.125 L 0 185.242188 C 43.566406 158.109375 97.90625 154.875 144.382812 176.640625 L 268.289062 124.210938 C 293.753906 59.84375 360.316406 21.613281 428.75 32.050781 L 466.226562 50.277344 C 436.429688 19.25 394.546875 0 348.160156 0 Z M 348.160156 0 "/>
<path style=" stroke:none;fill-rule:evenodd;fill:rgb(76.862746%,76.862746%,76.862746%);fill-opacity:1;" d="M 0 229.582031 L 0 348.160156 C 0 438.328125 72.855469 511.550781 163.019531 512 L 189.542969 512 L 212.480469 397.515625 C 235.363281 381.828125 259.671875 368.320312 285.082031 357.171875 C 308.222656 347.75 340.582031 339.761719 369.460938 333.621094 L 495.410156 420.25 C 506.222656 398.148438 511.894531 373.890625 512 349.285156 L 512 160.359375 C 480.050781 122.675781 445.644531 89.90625 410.929688 70.757812 L 401.714844 66.867188 L 344.0625 90.113281 L 70.453125 201.011719 L 0 229.375 Z M 0 229.582031 "/>
<path style=" stroke:none;fill-rule:evenodd;fill:url(#linear0);" d="M 0 229.582031 L 0 348.160156 C 0 438.328125 72.855469 511.550781 163.019531 512 L 189.542969 512 L 212.480469 397.515625 C 235.363281 381.828125 259.671875 368.320312 285.082031 357.171875 C 308.222656 347.75 340.582031 339.761719 369.460938 333.621094 L 495.410156 420.25 C 506.222656 398.148438 511.894531 373.890625 512 349.285156 L 512 160.359375 C 480.050781 122.675781 445.644531 89.90625 410.929688 70.757812 L 401.714844 66.867188 L 344.0625 90.113281 L 70.453125 201.011719 L 0 229.375 Z M 0 229.582031 "/>
<path style=" stroke:none;fill-rule:evenodd;fill:url(#radial0);" d="M 0 229.476562 L 0 348.160156 C 0 403.046875 27.035156 451.585938 68.402344 481.28125 C 93.183594 483.429688 118.785156 479.949219 143.359375 470.015625 C 228.273438 435.035156 268.722656 337.816406 233.675781 252.929688 C 218.691406 215.703125 190.863281 185.078125 155.238281 166.605469 Z M 0 229.476562 "/>
<path style=" stroke:none;fill-rule:evenodd;fill:url(#radial1);" d="M 459.367188 43.519531 C 492.703125 74.261719 511.765625 117.472656 512 162.816406 L 512 312.320312 C 499.222656 322.699219 484.96875 331.121094 469.707031 337.304688 C 384.371094 371.328125 287.601562 329.753906 253.542969 244.429688 C 238.460938 207.457031 237.078125 166.308594 249.652344 128.410156 L 459.367188 43.417969 Z M 459.367188 43.519531 "/>
<path style=" stroke:none;fill-rule:evenodd;fill:url(#linear1);" d="M 0 181.246094 L 0 348.160156 C 0 393.214844 18.226562 434.175781 47.820312 463.871094 C 115.449219 478.203125 184.347656 445.746094 216.363281 384.472656 C 248.375 323.203125 235.671875 248.109375 185.28125 200.777344 C 134.890625 153.449219 59.148438 145.464844 0 181.246094 Z M 444.824219 31.4375 C 486.78125 62.054688 511.710938 110.773438 512 162.714844 L 512 293.070312 C 458.089844 343.757812 375.757812 348.976562 315.882812 305.496094 C 256.003906 262.015625 235.480469 182.117188 266.992188 115.160156 C 298.507812 48.207031 373.160156 13.105469 444.824219 31.539062 Z M 444.824219 31.4375 "/>
<path style=" stroke:none;fill-rule:evenodd;fill:url(#linear2);" d="M 0 349.695312 L 0 326.042969 C 2.355469 322.253906 5.9375 319.179688 10.238281 317.441406 L 51.199219 300.953125 L 34.609375 260.097656 C 31.132812 252.714844 32.023438 244.015625 36.925781 237.492188 C 41.824219 230.96875 49.929688 227.691406 57.988281 228.972656 C 66.046875 230.253906 72.734375 235.886719 75.367188 243.609375 L 91.957031 284.363281 L 132.710938 267.878906 C 140.058594 264.566406 148.628906 265.535156 155.050781 270.402344 C 161.476562 275.269531 164.726562 283.253906 163.527344 291.226562 C 162.328125 299.195312 156.871094 305.871094 149.300781 308.632812 L 108.441406 325.222656 L 125.03125 365.976562 C 129.609375 377.261719 124.179688 390.121094 112.894531 394.699219 C 101.613281 399.28125 88.753906 393.847656 84.171875 382.566406 L 67.6875 341.707031 L 26.828125 358.398438 C 16.792969 362.496094 5.632812 358.605469 0 349.796875 Z M 0 349.695312 "/>
<path style=" stroke:none;fill-rule:evenodd;fill:url(#linear3);" d="M 394.648438 149.195312 C 410.511719 142.777344 418.167969 124.714844 411.75 108.851562 C 405.332031 92.988281 387.269531 85.332031 371.40625 91.75 C 355.570312 98.167969 347.9375 116.210938 354.355469 132.042969 C 360.773438 147.878906 378.816406 155.511719 394.648438 149.09375 Z M 358.605469 234.1875 C 374.441406 227.769531 382.074219 209.730469 375.65625 193.894531 C 369.234375 178.058594 351.195312 170.425781 335.359375 176.84375 C 319.523438 183.265625 311.890625 201.304688 318.308594 217.140625 C 324.730469 232.972656 342.769531 240.609375 358.605469 234.1875 Z M 496.84375 144.894531 C 503.265625 160.730469 495.628906 178.773438 479.796875 185.191406 C 463.960938 191.609375 445.917969 183.976562 439.5 168.140625 C 433.082031 152.304688 440.714844 134.265625 456.550781 127.847656 C 472.386719 121.425781 490.425781 129.0625 496.84375 144.894531 Z M 443.699219 270.335938 C 459.535156 263.917969 467.167969 245.875 460.75 230.042969 C 454.328125 214.207031 436.289062 206.574219 420.453125 212.992188 C 404.621094 219.410156 396.984375 237.453125 403.40625 253.285156 C 409.824219 269.121094 427.863281 276.753906 443.699219 270.335938 Z M 443.699219 270.335938 "/>
</g>
</svg>
