<svg xmlns="http://www.w3.org/2000/svg" width="48" height="48" viewBox="0 0 48 48" fill="none">
<g clip-path="url(#clip0_50533_239)">
<rect width="48" height="48" rx="10.5" fill="#F5F4F2"/>
<path d="M1.90467 20.8796H3.09417C3.51017 20.8796 3.82705 20.9446 4.0448 21.0746C4.26255 21.2046 4.37142 21.424 4.37142 21.7327C4.37142 21.8595 4.35355 21.97 4.3178 22.0643C4.28205 22.1553 4.23005 22.2349 4.1618 22.3031C4.0968 22.3681 4.01717 22.4218 3.92292 22.464C3.82867 22.5063 3.72467 22.5388 3.61092 22.5615C3.90342 22.5973 4.12442 22.6769 4.27392 22.8004C4.42342 22.9239 4.49817 23.1124 4.49817 23.3659C4.49817 23.5479 4.46242 23.7039 4.39092 23.8339C4.31942 23.9606 4.2203 24.0646 4.09355 24.1459C3.9668 24.2239 3.8173 24.2824 3.64505 24.3214C3.4728 24.3571 3.28592 24.375 3.08442 24.375H1.90467V20.8796ZM2.49455 21.3915V22.3226H3.12342C3.31842 22.3226 3.47605 22.282 3.5963 22.2008C3.71655 22.1163 3.77667 21.9846 3.77667 21.8059C3.77667 21.6434 3.72142 21.5345 3.61092 21.4793C3.50367 21.4208 3.35092 21.3915 3.15267 21.3915H2.49455ZM2.49455 22.8296V23.868H3.14292C3.25342 23.868 3.35417 23.8599 3.44517 23.8436C3.53617 23.8241 3.61417 23.7949 3.67917 23.7559C3.74417 23.7136 3.79455 23.66 3.8303 23.595C3.86605 23.5268 3.88392 23.4439 3.88392 23.3464C3.88392 23.1546 3.82055 23.0214 3.6938 22.9466C3.5703 22.8686 3.37042 22.8296 3.09417 22.8296H2.49455ZM6.4935 23.9314C6.4675 23.9899 6.43175 24.0484 6.38625 24.1069C6.344 24.1654 6.29037 24.219 6.22537 24.2678C6.16362 24.3133 6.08887 24.3506 6.00112 24.3799C5.91337 24.4091 5.811 24.4237 5.694 24.4237C5.5835 24.4237 5.48112 24.4075 5.38687 24.375C5.29262 24.3458 5.20975 24.3003 5.13825 24.2385C5.07 24.1768 5.01475 24.1004 4.9725 24.0094C4.9335 23.9151 4.914 23.8079 4.914 23.6876C4.914 23.4114 5.01637 23.205 5.22112 23.0685C5.42587 22.9288 5.71512 22.8589 6.08887 22.8589H6.474V22.7029C6.474 22.5371 6.43175 22.4234 6.34725 22.3616C6.26275 22.2966 6.123 22.2641 5.928 22.2641C5.76225 22.2641 5.60625 22.2885 5.46 22.3373C5.317 22.3828 5.19025 22.4364 5.07975 22.4981V22.0253C5.1805 21.97 5.31375 21.918 5.4795 21.8693C5.64525 21.8205 5.82562 21.7961 6.02062 21.7961C6.34562 21.7961 6.59587 21.8644 6.77137 22.0009C6.95012 22.1341 7.0395 22.3486 7.0395 22.6444V23.9655C7.0395 23.9948 7.0395 24.0289 7.0395 24.0679C7.04275 24.1036 7.04437 24.141 7.04437 24.18C7.04762 24.219 7.05087 24.2564 7.05412 24.2921C7.05737 24.3246 7.06062 24.3523 7.06387 24.375H6.54225C6.5325 24.3295 6.52275 24.2661 6.513 24.1849C6.5065 24.1036 6.50162 24.0305 6.49837 23.9655L6.4935 23.9314ZM5.85 23.985C5.97025 23.985 6.06937 23.9606 6.14737 23.9119C6.22862 23.8599 6.29362 23.8014 6.34237 23.7364C6.39112 23.6681 6.42525 23.6015 6.44475 23.5365C6.46425 23.4715 6.474 23.426 6.474 23.4V23.2294H6.123C5.89875 23.2294 5.73462 23.2651 5.63062 23.3366C5.52662 23.4049 5.47462 23.5024 5.47462 23.6291C5.47462 23.7396 5.5055 23.8274 5.56725 23.8924C5.63225 23.9541 5.7265 23.985 5.85 23.985ZM10.9158 24.375H7.64952V21.8449H8.21502V23.9168H8.99989V21.8449H9.56539V23.9168H10.3454V21.8449H10.9158V24.375ZM13.6643 24.1898C13.6286 24.2125 13.5847 24.2385 13.5327 24.2678C13.4807 24.2938 13.4189 24.3181 13.3474 24.3409C13.2759 24.3636 13.1931 24.3831 13.0988 24.3994C13.0046 24.4156 12.8973 24.4237 12.7771 24.4237C12.3123 24.4237 11.9646 24.3084 11.7338 24.0776C11.5063 23.8469 11.3926 23.5235 11.3926 23.1075C11.3926 22.9028 11.4234 22.7191 11.4852 22.5566C11.5469 22.3941 11.6331 22.2576 11.7436 22.1471C11.8541 22.0334 11.9857 21.9473 12.1384 21.8887C12.2912 21.827 12.4586 21.7961 12.6406 21.7961C12.8291 21.7961 12.9981 21.827 13.1476 21.8887C13.3003 21.9505 13.4254 22.0431 13.5229 22.1666C13.6204 22.2901 13.6871 22.4429 13.7228 22.6249C13.7618 22.8069 13.7634 23.0198 13.7277 23.2635H11.9776C12.0003 23.4943 12.0767 23.6681 12.2067 23.7851C12.3367 23.8989 12.5398 23.9558 12.8161 23.9558C13.0176 23.9558 13.1849 23.9314 13.3182 23.8826C13.4547 23.8306 13.5701 23.777 13.6643 23.7218V24.1898ZM12.6406 22.2446C12.4748 22.2446 12.3351 22.295 12.2213 22.3958C12.1076 22.4965 12.0328 22.646 11.9971 22.8443H13.1866C13.1931 22.6395 13.1476 22.4884 13.0501 22.3909C12.9526 22.2934 12.8161 22.2446 12.6406 22.2446ZM15.8845 23.6096L17.0545 21.8449H17.6102V24.375H17.0496V22.62L15.8893 24.375H15.3238V21.8449H15.8845V23.6096ZM20.1092 23.6486C20.1092 23.7851 20.0799 23.9021 20.0214 23.9996C19.9662 24.0971 19.8882 24.1784 19.7874 24.2434C19.6899 24.3051 19.5746 24.3506 19.4413 24.3799C19.3081 24.4091 19.1667 24.4237 19.0172 24.4237C18.8027 24.4237 18.6272 24.4026 18.4907 24.3604C18.3542 24.3149 18.2486 24.2694 18.1738 24.2239V23.7608C18.2681 23.8225 18.3851 23.8729 18.5248 23.9119C18.6678 23.9476 18.8222 23.9655 18.9879 23.9655C19.1602 23.9655 19.2967 23.9395 19.3974 23.8875C19.4982 23.8355 19.5486 23.7478 19.5486 23.6243C19.5486 23.5073 19.5031 23.4244 19.4121 23.3756C19.3211 23.3236 19.1797 23.2976 18.9879 23.2976H18.6321V22.8686H18.9977C19.1504 22.8686 19.2674 22.8426 19.3487 22.7906C19.4332 22.7386 19.4754 22.6606 19.4754 22.5566C19.4754 22.4429 19.4283 22.3649 19.3341 22.3226C19.2431 22.2771 19.1244 22.2544 18.9782 22.2544C18.8189 22.2544 18.6759 22.2739 18.5492 22.3129C18.4224 22.3486 18.3103 22.3974 18.2128 22.4591V21.996C18.2941 21.944 18.4046 21.8985 18.5443 21.8595C18.6841 21.8173 18.8563 21.7961 19.0611 21.7961C19.3731 21.7961 19.6103 21.853 19.7728 21.9668C19.9353 22.0805 20.0166 22.2463 20.0166 22.464C20.0166 22.6298 19.9711 22.7598 19.8801 22.854C19.7891 22.945 19.6558 23.0116 19.4803 23.0539C19.8996 23.1189 20.1092 23.3171 20.1092 23.6486ZM21.7575 24.4237C21.5787 24.4237 21.413 24.3945 21.2602 24.336C21.1075 24.2775 20.9742 24.193 20.8605 24.0825C20.75 23.9688 20.6622 23.8306 20.5972 23.6681C20.5355 23.5056 20.5046 23.3188 20.5046 23.1075C20.5046 22.8963 20.5355 22.7094 20.5972 22.5469C20.6622 22.3844 20.75 22.2479 20.8605 22.1374C20.9742 22.0236 21.1075 21.9391 21.2602 21.8839C21.413 21.8254 21.5787 21.7961 21.7575 21.7961C21.9362 21.7961 22.102 21.8254 22.2547 21.8839C22.4075 21.9391 22.5407 22.0236 22.6545 22.1374C22.7682 22.2479 22.8576 22.3844 22.9226 22.5469C22.9876 22.7094 23.0201 22.8963 23.0201 23.1075C23.0201 23.3188 22.9876 23.5056 22.9226 23.6681C22.8576 23.8306 22.7682 23.9688 22.6545 24.0825C22.5407 24.193 22.4075 24.2775 22.2547 24.336C22.102 24.3945 21.9362 24.4237 21.7575 24.4237ZM21.7575 23.9509C21.9525 23.9509 22.1134 23.8826 22.2401 23.7461C22.3701 23.6096 22.4351 23.3968 22.4351 23.1075C22.4351 22.8215 22.3701 22.6103 22.2401 22.4738C22.1134 22.334 21.9525 22.2641 21.7575 22.2641C21.5657 22.2641 21.4049 22.334 21.2749 22.4738C21.1481 22.6103 21.0847 22.8215 21.0847 23.1075C21.0847 23.3968 21.1481 23.6096 21.2749 23.7461C21.4049 23.8826 21.5657 23.9509 21.7575 23.9509ZM25.8674 23.1173C25.8674 23.3285 25.8349 23.5154 25.7699 23.6779C25.7049 23.8404 25.6155 23.9769 25.5018 24.0874C25.3913 24.1979 25.258 24.2824 25.102 24.3409C24.9493 24.3961 24.7835 24.4237 24.6048 24.4237C24.4228 24.4237 24.2554 24.3929 24.1026 24.3311C23.9499 24.2694 23.8183 24.1768 23.7078 24.0533C23.5973 23.9265 23.5095 23.7705 23.4445 23.5853C23.3828 23.3968 23.3519 23.1758 23.3519 22.9223C23.3519 22.6915 23.3616 22.4803 23.3811 22.2885C23.4006 22.0968 23.4331 21.9245 23.4786 21.7718C23.5274 21.619 23.5924 21.4858 23.6736 21.372C23.7549 21.255 23.8589 21.1543 23.9856 21.0698C24.1351 20.9755 24.2944 20.9154 24.4634 20.8894C24.6356 20.8634 24.8111 20.8471 24.9899 20.8406C25.1881 20.8309 25.3376 20.8146 25.4384 20.7919C25.5391 20.7659 25.6253 20.7334 25.6968 20.6944V21.1965C25.661 21.2193 25.6236 21.2388 25.5846 21.255C25.5456 21.268 25.5001 21.2794 25.4481 21.2891C25.3961 21.2989 25.336 21.3086 25.2678 21.3184C25.1995 21.3249 25.1199 21.3314 25.0289 21.3379C24.8631 21.3541 24.712 21.3704 24.5755 21.3866C24.439 21.3996 24.3171 21.4403 24.2099 21.5085C24.0864 21.593 23.9954 21.71 23.9369 21.8595C23.8784 22.009 23.8394 22.191 23.8199 22.4055C23.9824 22.0383 24.296 21.8546 24.7608 21.8546C24.9103 21.8546 25.0516 21.8839 25.1849 21.9424C25.3214 21.9976 25.44 22.0789 25.5408 22.1861C25.6415 22.2934 25.7211 22.425 25.7796 22.581C25.8381 22.737 25.8674 22.9158 25.8674 23.1173ZM24.6048 23.9509C24.803 23.9509 24.9655 23.8843 25.0923 23.751C25.2223 23.6145 25.2873 23.4065 25.2873 23.127C25.2873 22.8475 25.2223 22.6411 25.0923 22.5079C24.9655 22.3714 24.803 22.3031 24.6048 22.3031C24.4098 22.3031 24.2489 22.3698 24.1221 22.503C23.9986 22.6363 23.9369 22.841 23.9369 23.1173C23.9369 23.4033 24.0003 23.6145 24.127 23.751C24.2538 23.8843 24.413 23.9509 24.6048 23.9509ZM27.744 24.4237C27.5522 24.4237 27.3865 24.3815 27.2467 24.297C27.1102 24.2093 26.9997 24.0923 26.9152 23.946V25.2379H26.3497V21.8449H26.8665L26.9055 22.2934C26.99 22.1406 27.1021 22.0204 27.2418 21.9326C27.3816 21.8416 27.5522 21.7961 27.7537 21.7961C27.9032 21.7961 28.0446 21.8238 28.1778 21.879C28.3143 21.931 28.433 22.0123 28.5337 22.1228C28.6345 22.23 28.7141 22.3665 28.7726 22.5323C28.8343 22.6948 28.8652 22.8865 28.8652 23.1075C28.8652 23.3318 28.8343 23.5268 28.7726 23.6925C28.7141 23.855 28.6328 23.9915 28.5288 24.102C28.4281 24.2093 28.3095 24.2905 28.173 24.3458C28.0365 24.3977 27.8935 24.4237 27.744 24.4237ZM27.6075 23.9509C27.809 23.9509 27.9715 23.8826 28.095 23.7461C28.2217 23.6064 28.2851 23.3935 28.2851 23.1075C28.2851 22.8248 28.2217 22.6135 28.095 22.4738C27.9715 22.334 27.8106 22.2641 27.6123 22.2641C27.5116 22.2641 27.419 22.282 27.3345 22.3178C27.25 22.3503 27.1752 22.4023 27.1102 22.4738C27.0485 22.5453 26.9997 22.6346 26.964 22.7419C26.9282 22.8459 26.9103 22.9678 26.9103 23.1075C26.9103 23.2505 26.9282 23.3756 26.964 23.4829C26.9997 23.5869 27.0485 23.6746 27.1102 23.7461C27.172 23.8144 27.2451 23.8664 27.3296 23.9021C27.4173 23.9346 27.51 23.9509 27.6075 23.9509ZM30.778 23.9314C30.752 23.9899 30.7163 24.0484 30.6708 24.1069C30.6285 24.1654 30.5749 24.219 30.5099 24.2678C30.4482 24.3133 30.3734 24.3506 30.2857 24.3799C30.1979 24.4091 30.0955 24.4237 29.9785 24.4237C29.868 24.4237 29.7657 24.4075 29.6714 24.375C29.5772 24.3458 29.4943 24.3003 29.4228 24.2385C29.3545 24.1768 29.2993 24.1004 29.257 24.0094C29.218 23.9151 29.1985 23.8079 29.1985 23.6876C29.1985 23.4114 29.3009 23.205 29.5057 23.0685C29.7104 22.9288 29.9997 22.8589 30.3734 22.8589H30.7585V22.7029C30.7585 22.5371 30.7163 22.4234 30.6318 22.3616C30.5473 22.2966 30.4075 22.2641 30.2125 22.2641C30.0468 22.2641 29.8908 22.2885 29.7445 22.3373C29.6015 22.3828 29.4748 22.4364 29.3643 22.4981V22.0253C29.465 21.97 29.5983 21.918 29.764 21.8693C29.9298 21.8205 30.1102 21.7961 30.3052 21.7961C30.6302 21.7961 30.8804 21.8644 31.0559 22.0009C31.2347 22.1341 31.324 22.3486 31.324 22.6444V23.9655C31.324 23.9948 31.324 24.0289 31.324 24.0679C31.3273 24.1036 31.3289 24.141 31.3289 24.18C31.3322 24.219 31.3354 24.2564 31.3387 24.2921C31.3419 24.3246 31.3452 24.3523 31.3484 24.375H30.8268C30.817 24.3295 30.8073 24.2661 30.7975 24.1849C30.791 24.1036 30.7862 24.0305 30.7829 23.9655L30.778 23.9314ZM30.1345 23.985C30.2548 23.985 30.3539 23.9606 30.4319 23.9119C30.5132 23.8599 30.5782 23.8014 30.6269 23.7364C30.6757 23.6681 30.7098 23.6015 30.7293 23.5365C30.7488 23.4715 30.7585 23.426 30.7585 23.4V23.2294H30.4075C30.1833 23.2294 30.0192 23.2651 29.9152 23.3366C29.8112 23.4049 29.7592 23.5024 29.7592 23.6291C29.7592 23.7396 29.79 23.8274 29.8518 23.8924C29.9168 23.9541 30.011 23.985 30.1345 23.985ZM33.8012 21.8449V22.8881H34.0108L34.7372 21.8449H35.3173L34.4544 23.0588L35.3661 24.375H34.7031L33.9962 23.3464H33.8012V24.375H33.2357V23.3464H33.0407L32.3192 24.375H31.6757L32.5873 23.0831L31.7196 21.8449H32.3192L33.0309 22.8881H33.2357V21.8449H33.8012ZM37.7394 24.1898C37.7036 24.2125 37.6598 24.2385 37.6078 24.2678C37.5558 24.2938 37.494 24.3181 37.4225 24.3409C37.351 24.3636 37.2681 24.3831 37.1739 24.3994C37.0796 24.4156 36.9724 24.4237 36.8521 24.4237C36.3874 24.4237 36.0396 24.3084 35.8089 24.0776C35.5814 23.8469 35.4676 23.5235 35.4676 23.1075C35.4676 22.9028 35.4985 22.7191 35.5603 22.5566C35.622 22.3941 35.7081 22.2576 35.8186 22.1471C35.9291 22.0334 36.0608 21.9473 36.2135 21.8887C36.3663 21.827 36.5336 21.7961 36.7156 21.7961C36.9041 21.7961 37.0731 21.827 37.2226 21.8887C37.3754 21.9505 37.5005 22.0431 37.598 22.1666C37.6955 22.2901 37.7621 22.4429 37.7979 22.6249C37.8369 22.8069 37.8385 23.0198 37.8028 23.2635H36.0526C36.0754 23.4943 36.1518 23.6681 36.2818 23.7851C36.4118 23.8989 36.6149 23.9558 36.8911 23.9558C37.0926 23.9558 37.26 23.9314 37.3933 23.8826C37.5298 23.8306 37.6451 23.777 37.7394 23.7218V24.1898ZM36.7156 22.2446C36.5499 22.2446 36.4101 22.295 36.2964 22.3958C36.1826 22.4965 36.1079 22.646 36.0721 22.8443H37.2616C37.2681 22.6395 37.2226 22.4884 37.1251 22.3909C37.0276 22.2934 36.8911 22.2446 36.7156 22.2446ZM39.9609 23.3074H38.8932V24.375H38.3277V21.8449H38.8932V22.8491H39.9609V21.8449H40.5264V24.375H39.9609V23.3074ZM41.721 23.6096L42.891 21.8449H43.4468V24.375H42.8861V22.62L41.7259 24.375H41.1604V21.8449H41.721V23.6096ZM46.1992 24.1898C46.1635 24.2125 46.1196 24.2385 46.0676 24.2678C46.0156 24.2938 45.9539 24.3181 45.8824 24.3409C45.8109 24.3636 45.728 24.3831 45.6337 24.3994C45.5395 24.4156 45.4322 24.4237 45.312 24.4237C44.8472 24.4237 44.4995 24.3084 44.2687 24.0776C44.0412 23.8469 43.9275 23.5235 43.9275 23.1075C43.9275 22.9028 43.9584 22.7191 44.0201 22.5566C44.0819 22.3941 44.168 22.2576 44.2785 22.1471C44.389 22.0334 44.5206 21.9473 44.6734 21.8887C44.8261 21.827 44.9935 21.7961 45.1755 21.7961C45.364 21.7961 45.533 21.827 45.6825 21.8887C45.8352 21.9505 45.9604 22.0431 46.0579 22.1666C46.1554 22.2901 46.222 22.4429 46.2577 22.6249C46.2967 22.8069 46.2984 23.0198 46.2626 23.2635H44.5125C44.5352 23.4943 44.6116 23.6681 44.7416 23.7851C44.8716 23.8989 45.0747 23.9558 45.351 23.9558C45.5525 23.9558 45.7199 23.9314 45.8531 23.8826C45.9896 23.8306 46.105 23.777 46.1992 23.7218V24.1898ZM45.1755 22.2446C45.0097 22.2446 44.87 22.295 44.7562 22.3958C44.6425 22.4965 44.5677 22.646 44.532 22.8443H45.7215C45.728 22.6395 45.6825 22.4884 45.585 22.3909C45.4875 22.2934 45.351 22.2446 45.1755 22.2446Z" fill="#FA3E2C"/>
<g clip-path="url(#clip1_50533_239)">
<path d="M18.7617 22.8119H19.2174C19.3649 22.8119 19.4767 22.8369 19.553 22.8869C19.6305 22.9369 19.6692 23.0213 19.6692 23.14C19.6692 23.1888 19.6624 23.2313 19.6486 23.2675C19.6361 23.3025 19.618 23.3331 19.5942 23.3594C19.5717 23.3844 19.5436 23.405 19.5099 23.4213C19.4774 23.4375 19.4411 23.45 19.4011 23.4588C19.5061 23.4713 19.5849 23.5019 19.6374 23.5506C19.6911 23.5981 19.718 23.6706 19.718 23.7681C19.718 23.8381 19.7049 23.8981 19.6786 23.9481C19.6536 23.9969 19.6186 24.0369 19.5736 24.0681C19.5286 24.0981 19.4755 24.1206 19.4142 24.1356C19.353 24.1494 19.2861 24.1562 19.2136 24.1562H18.7617V22.8119ZM18.938 22.9731V23.3856H19.2042C19.2467 23.3856 19.2855 23.3813 19.3205 23.3725C19.3555 23.3625 19.3855 23.3481 19.4105 23.3294C19.4355 23.3094 19.4549 23.285 19.4686 23.2563C19.4836 23.2263 19.4911 23.1906 19.4911 23.1494C19.4911 23.0806 19.4674 23.0344 19.4199 23.0106C19.3724 22.9856 19.3049 22.9731 19.2174 22.9731H18.938ZM18.938 23.545V23.9969H19.2136C19.2611 23.9969 19.3042 23.9931 19.343 23.9856C19.3817 23.9781 19.4149 23.9656 19.4424 23.9481C19.4711 23.9306 19.493 23.9075 19.508 23.8788C19.5242 23.85 19.5324 23.8144 19.5324 23.7719C19.5324 23.6869 19.5049 23.6281 19.4499 23.5956C19.3961 23.5619 19.3105 23.545 19.193 23.545H18.938ZM20.4709 23.9706C20.4596 23.9931 20.4452 24.0169 20.4277 24.0419C20.4102 24.0656 20.3884 24.0875 20.3621 24.1075C20.3359 24.1275 20.3046 24.1437 20.2684 24.1562C20.2334 24.1688 20.1921 24.175 20.1446 24.175C20.0571 24.175 19.9865 24.1506 19.9327 24.1019C19.879 24.0519 19.8521 23.9806 19.8521 23.8881C19.8521 23.7819 19.889 23.7038 19.9627 23.6538C20.0377 23.6037 20.144 23.5787 20.2815 23.5787H20.4634V23.4981C20.4634 23.4306 20.4459 23.3825 20.4109 23.3537C20.3759 23.325 20.3159 23.3106 20.2309 23.3106C20.1709 23.3106 20.114 23.3206 20.0602 23.3406C20.0065 23.3594 19.9584 23.3813 19.9159 23.4063V23.2581C19.9509 23.2369 19.9977 23.2163 20.0565 23.1963C20.1165 23.175 20.1821 23.1644 20.2534 23.1644C20.3759 23.1644 20.469 23.19 20.5327 23.2412C20.5965 23.2913 20.6284 23.3694 20.6284 23.4756V23.9987C20.6284 24.01 20.6284 24.0231 20.6284 24.0381C20.6296 24.0519 20.6302 24.0663 20.6302 24.0812C20.6315 24.0963 20.6327 24.1106 20.634 24.1244C20.6352 24.1369 20.6365 24.1475 20.6377 24.1562H20.4877C20.484 24.1388 20.4802 24.1144 20.4765 24.0831C20.474 24.0506 20.4727 24.0225 20.4727 23.9987L20.4709 23.9706ZM20.1802 24.0269C20.2315 24.0269 20.2752 24.0162 20.3115 23.995C20.3477 23.9738 20.3771 23.9494 20.3996 23.9219C20.4221 23.8931 20.4384 23.8656 20.4484 23.8394C20.4584 23.8119 20.4634 23.7925 20.4634 23.7813V23.71H20.2984C20.1996 23.71 20.1277 23.7244 20.0827 23.7531C20.039 23.7806 20.0171 23.8225 20.0171 23.8788C20.0171 23.9225 20.0302 23.9581 20.0565 23.9856C20.0827 24.0131 20.124 24.0269 20.1802 24.0269ZM22.0559 24.1562H20.8409V23.1831H21.0059V24.0156H21.3659V23.1831H21.5309V24.0156H21.8909V23.1831H22.0559V24.1562ZM22.849 23.9706C22.8378 23.9931 22.8234 24.0169 22.8059 24.0419C22.7884 24.0656 22.7665 24.0875 22.7403 24.1075C22.714 24.1275 22.6828 24.1437 22.6465 24.1562C22.6115 24.1688 22.5703 24.175 22.5228 24.175C22.4353 24.175 22.3647 24.1506 22.3109 24.1019C22.2572 24.0519 22.2303 23.9806 22.2303 23.8881C22.2303 23.7819 22.2672 23.7038 22.3409 23.6538C22.4159 23.6037 22.5222 23.5787 22.6597 23.5787H22.8415V23.4981C22.8415 23.4306 22.824 23.3825 22.789 23.3537C22.754 23.325 22.694 23.3106 22.609 23.3106C22.549 23.3106 22.4922 23.3206 22.4384 23.3406C22.3847 23.3594 22.3365 23.3813 22.294 23.4063V23.2581C22.329 23.2369 22.3759 23.2163 22.4347 23.1963C22.4947 23.175 22.5603 23.1644 22.6315 23.1644C22.754 23.1644 22.8472 23.19 22.9109 23.2412C22.9747 23.2913 23.0065 23.3694 23.0065 23.4756V23.9987C23.0065 24.01 23.0065 24.0231 23.0065 24.0381C23.0078 24.0519 23.0084 24.0663 23.0084 24.0812C23.0097 24.0963 23.0109 24.1106 23.0122 24.1244C23.0134 24.1369 23.0147 24.1475 23.0159 24.1562H22.8659C22.8622 24.1388 22.8584 24.1144 22.8547 24.0831C22.8522 24.0506 22.8509 24.0225 22.8509 23.9987L22.849 23.9706ZM22.5584 24.0269C22.6097 24.0269 22.6534 24.0162 22.6897 23.995C22.7259 23.9738 22.7553 23.9494 22.7778 23.9219C22.8003 23.8931 22.8165 23.8656 22.8265 23.8394C22.8365 23.8119 22.8415 23.7925 22.8415 23.7813V23.71H22.6765C22.5778 23.71 22.5059 23.7244 22.4609 23.7531C22.4172 23.7806 22.3953 23.8225 22.3953 23.8788C22.3953 23.9225 22.4084 23.9581 22.4347 23.9856C22.4609 24.0131 22.5022 24.0269 22.5584 24.0269ZM23.7492 23.9313L24.2686 23.1831H24.4355V24.1562H24.2705V23.41L23.753 24.1562H23.5842V23.1831H23.7492V23.9313ZM24.9092 23.7419H24.8229V24.1562H24.6579V23.1831H24.8229V23.6013H24.9167L25.2579 23.1831H25.4454L25.0461 23.6631L25.4529 24.1562H25.2523L24.9092 23.7419ZM25.9425 24.175C25.8762 24.175 25.8143 24.1638 25.7568 24.1413C25.6993 24.1188 25.6493 24.0863 25.6068 24.0438C25.5656 24 25.5331 23.9469 25.5093 23.8844C25.4856 23.8219 25.4737 23.75 25.4737 23.6687C25.4737 23.5888 25.4856 23.5175 25.5093 23.455C25.5331 23.3913 25.5656 23.3381 25.6068 23.2956C25.6493 23.2531 25.6993 23.2206 25.7568 23.1981C25.8143 23.1756 25.8762 23.1644 25.9425 23.1644C26.01 23.1644 26.0725 23.1756 26.13 23.1981C26.1875 23.2206 26.2368 23.2531 26.2781 23.2956C26.3206 23.3381 26.3537 23.3913 26.3775 23.455C26.4025 23.5175 26.415 23.5888 26.415 23.6687C26.415 23.75 26.4025 23.8219 26.3775 23.8844C26.3537 23.9469 26.3206 24 26.2781 24.0438C26.2368 24.0863 26.1875 24.1188 26.13 24.1413C26.0725 24.1638 26.01 24.175 25.9425 24.175ZM25.9425 24.0269C25.9862 24.0269 26.0262 24.02 26.0625 24.0062C26.1 23.9912 26.1325 23.9694 26.16 23.9406C26.1875 23.9106 26.2087 23.8731 26.2237 23.8281C26.2387 23.7831 26.2462 23.73 26.2462 23.6687C26.2462 23.6075 26.2387 23.5544 26.2237 23.5094C26.2087 23.4644 26.1875 23.4275 26.16 23.3988C26.1325 23.3688 26.1 23.3469 26.0625 23.3331C26.0262 23.3181 25.9862 23.3106 25.9425 23.3106C25.8987 23.3106 25.8587 23.3181 25.8225 23.3331C25.7862 23.3469 25.7543 23.3688 25.7268 23.3988C25.7006 23.4275 25.68 23.4644 25.665 23.5094C25.65 23.5544 25.6425 23.6075 25.6425 23.6687C25.6425 23.73 25.65 23.7831 25.665 23.8281C25.68 23.8731 25.7006 23.9106 25.7268 23.9406C25.7543 23.9694 25.7862 23.9912 25.8225 24.0062C25.8587 24.02 25.8987 24.0269 25.9425 24.0269ZM27.2048 23.725H26.7342V24.1562H26.5692V23.1831H26.7342V23.5844H27.2048V23.1831H27.3698V24.1562H27.2048V23.725ZM27.8447 23.7419H27.7585V24.1562H27.5935V23.1831H27.7585V23.6013H27.8522L28.1935 23.1831H28.381L27.9816 23.6631L28.3885 24.1562H28.1879L27.8447 23.7419ZM29.0669 23.9706C29.0557 23.9931 29.0413 24.0169 29.0238 24.0419C29.0063 24.0656 28.9844 24.0875 28.9582 24.1075C28.9319 24.1275 28.9007 24.1437 28.8644 24.1562C28.8294 24.1688 28.7882 24.175 28.7407 24.175C28.6532 24.175 28.5826 24.1506 28.5288 24.1019C28.4751 24.0519 28.4482 23.9806 28.4482 23.8881C28.4482 23.7819 28.4851 23.7038 28.5588 23.6538C28.6338 23.6037 28.7401 23.5787 28.8776 23.5787H29.0594V23.4981C29.0594 23.4306 29.0419 23.3825 29.0069 23.3537C28.9719 23.325 28.9119 23.3106 28.8269 23.3106C28.7669 23.3106 28.7101 23.3206 28.6563 23.3406C28.6026 23.3594 28.5544 23.3813 28.5119 23.4063V23.2581C28.5469 23.2369 28.5938 23.2163 28.6526 23.1963C28.7126 23.175 28.7782 23.1644 28.8494 23.1644C28.9719 23.1644 29.0651 23.19 29.1288 23.2412C29.1926 23.2913 29.2244 23.3694 29.2244 23.4756V23.9987C29.2244 24.01 29.2244 24.0231 29.2244 24.0381C29.2257 24.0519 29.2263 24.0663 29.2263 24.0812C29.2276 24.0963 29.2288 24.1106 29.2301 24.1244C29.2313 24.1369 29.2326 24.1475 29.2338 24.1562H29.0838C29.0801 24.1388 29.0763 24.1144 29.0726 24.0831C29.0701 24.0506 29.0688 24.0225 29.0688 23.9987L29.0669 23.9706ZM28.7763 24.0269C28.8276 24.0269 28.8713 24.0162 28.9076 23.995C28.9438 23.9738 28.9732 23.9494 28.9957 23.9219C29.0182 23.8931 29.0344 23.8656 29.0444 23.8394C29.0544 23.8119 29.0594 23.7925 29.0594 23.7813V23.71H28.8944C28.7957 23.71 28.7238 23.7244 28.6788 23.7531C28.6351 23.7806 28.6132 23.8225 28.6132 23.8788C28.6132 23.9225 28.6263 23.9581 28.6526 23.9856C28.6788 24.0131 28.7201 24.0269 28.7763 24.0269Z" fill="#FA3E2C"/>
<g clip-path="url(#clip2_50533_239)">
<path d="M48 6.58904e-08C32 8.62104e-08 16 6.42661e-08 1.40312e-07 0L-6.48417e-07 48L48 48C48 32 48 16 48 6.58904e-08Z" fill="#FFEA00"/>
<path d="M30.2431 38.8958C25.0764 38.8958 24.0828 34.4445 27.1829 28.3239C30.2034 22.1636 35.847 17.6725 40.815 17.6725C45.8228 17.6725 46.9356 22.0841 43.8356 28.3239C40.815 34.4842 35.5688 38.8958 30.2431 38.8958ZM23.8046 12.943C25.8316 12.943 25.2752 17.6725 22.6521 22.3623H28.1367C34.0983 9.7635 29.5675 4.875 24.4405 4.875C16.1341 4.875 6.79424 13.261 0.912142 24.0316C-5.24816 35.3188 -4.53277 44.0625 3.37627 44.0625C12.3584 44.0625 21.0623 35.9945 27.2226 24.7072H15.4982L13.193 28.4431H20.9033L21.1815 25.0649C17.4059 31.6624 13.034 35.9547 10.5699 35.9547C8.14553 35.9547 9.09939 31.0662 12.8751 24.4687C16.6905 17.8315 21.1815 12.943 23.8046 12.943ZM39.1458 28.2842C41.133 24.9457 41.3714 22.561 40.1791 22.561C38.8676 22.561 36.7611 25.0252 34.8137 28.2842C32.7868 31.5829 32.5483 33.9675 33.7804 33.9675C35.0919 33.9675 37.1983 31.5034 39.1458 28.2842Z" fill="black"/>
</g>
</g>
</g>
<defs>
<clipPath id="clip0_50533_239">
<rect width="48" height="48" rx="10.5" fill="white"/>
</clipPath>
<clipPath id="clip1_50533_239">
<rect width="48" height="48" fill="white"/>
</clipPath>
<clipPath id="clip2_50533_239">
<rect width="48" height="48" fill="white"/>
</clipPath>
</defs>
</svg>