<svg width="77" height="77" viewBox="245 0 77 77" fill="none" xmlns="http://www.w3.org/2000/svg">
  <g clip-path="url(#clip0_580_2969)">
    <path fill-rule="evenodd" clip-rule="evenodd" d="M283.378 76.1316C313.831 76.1316 321.443 68.5184 321.443 38.0658C321.443 7.61316 313.831 0 283.378 0C252.926 0 245.312 7.61316 245.312 38.0658C245.312 68.5184 252.926 76.1316 283.378 76.1316ZM270.267 60.8664V15.1875H262.315V60.8664H270.267ZM289.849 15.1875C292.853 15.1875 295.643 15.5682 298.224 16.3718C300.803 17.1331 303.004 18.4442 304.865 20.2206C306.725 21.9548 308.206 24.3233 309.262 27.1571C310.362 29.9909 310.87 33.586 310.87 37.7732C310.87 41.4952 310.32 44.7942 309.262 47.6703C308.163 50.5041 306.682 52.9149 304.78 54.9028C302.876 56.8907 300.551 58.371 297.927 59.3438C295.306 60.3166 292.345 60.8664 289.215 60.8664H279.19V15.1875H289.849ZM288.539 54.6913C290.652 54.6913 292.641 54.3107 294.418 53.5916C296.151 52.8726 297.632 51.7729 298.901 50.4195C300.169 48.9814 301.099 47.2473 301.819 45.0903C302.496 42.9332 302.876 40.4801 302.876 37.6463C302.876 34.5587 302.538 32.021 301.904 29.9063C301.227 27.8338 300.297 26.142 299.112 24.8731C297.927 23.6043 296.49 22.6738 294.797 22.1239C293.148 21.5741 291.288 21.3203 289.258 21.3203H287.185V54.6067H288.622L288.539 54.6913Z" fill="rgba(0, 0, 0, 0.86)" />
  </g>
  <defs>
    <clipPath id="clip0_580_2969">
      <rect x="245" width="77" height="77" fill="white" />
    </clipPath>
  </defs>
</svg>