<svg class="logo_svg" width="322" height="77" viewBox="0 0 322 77" fill="none" xmlns="http://www.w3.org/2000/svg">
  <g clip-path="url(#clip0_580_2969)">
    <path fill-rule="evenodd" clip-rule="evenodd" d="M283.378 76.1316C313.831 76.1316 321.443 68.5184 321.443 38.0658C321.443 7.61316 313.831 0 283.378 0C252.926 0 245.312 7.61316 245.312 38.0658C245.312 68.5184 252.926 76.1316 283.378 76.1316ZM270.267 60.8664V15.1875H262.315V60.8664H270.267ZM289.849 15.1875C292.853 15.1875 295.643 15.5682 298.224 16.3718C300.803 17.1331 303.004 18.4442 304.865 20.2206C306.725 21.9548 308.206 24.3233 309.262 27.1571C310.362 29.9909 310.87 33.586 310.87 37.7732C310.87 41.4952 310.32 44.7942 309.262 47.6703C308.163 50.5041 306.682 52.9149 304.78 54.9028C302.876 56.8907 300.551 58.371 297.927 59.3438C295.306 60.3166 292.345 60.8664 289.215 60.8664H279.19V15.1875H289.849ZM288.539 54.6913C290.652 54.6913 292.641 54.3107 294.418 53.5916C296.151 52.8726 297.632 51.7729 298.901 50.4195C300.169 48.9814 301.099 47.2473 301.819 45.0903C302.496 42.9332 302.876 40.4801 302.876 37.6463C302.876 34.5587 302.538 32.021 301.904 29.9063C301.227 27.8338 300.297 26.142 299.112 24.8731C297.927 23.6043 296.49 22.6738 294.797 22.1239C293.148 21.5741 291.288 21.3203 289.258 21.3203H287.185V54.6067H288.622L288.539 54.6913ZM23.3646 16.689H27.7621V65.6668H37.5946V9.03125H23.2612C8.86142 9.03125 1.28121 16.4195 1.28121 27.3486C1.28121 36.0844 5.43131 41.2093 12.8528 46.504L0 65.6631H10.6706L25.0077 44.248L20.049 40.9065C14.0084 36.8266 11.0768 33.6549 11.0768 26.8058C11.0768 20.7689 15.3155 16.689 23.3646 16.689ZM78.1245 65.6668V24.6827H68.4434V40.9065H55.4873V24.6827H45.8062V65.6668H55.4873V48.5643H68.4434V65.6668H78.1245ZM112.902 75.0119H121.874V57.9943H117.554V24.668H89.2899V28.1756C89.2899 38.1927 88.6142 51.1452 85.2063 57.9943H82.1712V75.0119H91.1434V65.6336H112.902V75.0119ZM97.6196 32.3405H107.873V58.0091H94.1784C96.8812 51.8024 97.6196 40.637 97.6196 33.5552V32.3405ZM124.233 45.2597C124.233 59.5266 131.252 66.4422 143.629 66.4422C149.836 66.4422 154.392 64.825 157.224 62.8681V54.9445C154.222 57.0011 149.164 58.7881 144.441 58.7881C137.356 58.7881 134.657 55.4503 134.254 48.6012H157.63V43.4763C157.63 29.239 151.357 23.8446 141.676 23.8446C129.868 23.8446 124.233 32.8796 124.233 45.2597ZM147.779 41.4456H134.254C134.524 34.9361 136.883 31.495 141.502 31.5356C146.302 31.5356 147.779 35.5158 147.779 40.6407V41.4456ZM173.854 65.6668V45.5292L188.191 65.6336H199.205L183.657 43.5723L197.351 24.6827H187.567L173.854 43.5723V24.6827H164.139V65.6668H173.854ZM217.478 23.8409C205.09 23.8409 198.647 32.7097 198.647 45.1932H198.644C198.644 58.8878 204.92 66.4422 217.88 66.4754C222.363 66.4754 225.538 65.6668 227.901 63.9462V56.0522C225.471 57.7728 222.536 58.8177 218.456 58.8177C211.541 58.8177 208.672 53.4233 208.672 44.9569C208.672 36.0512 212.179 31.495 218.523 31.495C222.267 31.495 225.944 32.8131 227.901 34.0278V25.7941C225.878 24.6495 222.278 23.8409 217.478 23.8409Z" fill="rgba(0, 0, 0, 0.86)" fill-opacity="1"></path>
  </g>
  <defs>
    <clipPath id="clip0_580_2969">
      <rect width="322" height="77" fill="white"></rect>
    </clipPath>
  </defs>
</svg>
