<svg width="200" height="200" viewBox="0 0 200 200" fill="none" xmlns="http://www.w3.org/2000/svg">
<path d="M0 95.082C0 50.2599 0 27.8489 13.9244 13.9244C27.8489 0 50.2599 0 95.082 0H104.918C149.74 0 172.151 0 186.076 13.9244C200 27.8489 200 50.2599 200 95.082V104.918C200 149.74 200 172.151 186.076 186.076C172.151 200 149.74 200 104.918 200H95.082C50.2599 200 27.8489 200 13.9244 186.076C0 172.151 0 149.74 0 104.918V95.082Z" fill="#0077FF"/>
<path d="M44.242 1.57003C57.0048 1.19209e-07 73.4281 0 95.082 0H104.918C126.572 0 142.995 5.96046e-07 155.758 1.57003C156.586 2.81121 157 4.04128 157 5.32981C157 10.8756 149.331 15.3385 133.993 24.2643L132.537 25.1113C117.199 34.0371 109.53 38.5 100 38.5C90.4701 38.5 82.801 34.0371 67.4628 25.1113L66.0073 24.2643C50.6691 15.3385 43 10.8756 43 5.32982C43 4.04129 43.414 2.81121 44.242 1.57003Z" fill="#00D9ED"/>
<path d="M56.3812 42.2673C71.8946 51.224 79.6514 55.7024 84.4708 64.0498C89.2902 72.3973 89.2902 81.354 89.2902 99.2673V100.967C89.2902 118.881 89.2902 127.837 84.4708 130.62C79.6514 133.402 71.8947 128.924 56.3812 119.967L54.909 119.117C39.3955 110.161 31.6388 105.682 26.8194 97.3349C22 88.9874 22 80.0307 22 62.1173L22 60.4174C22 42.504 22 33.5473 26.8194 30.7648C31.6388 27.9823 39.3955 32.4607 54.909 41.4173L56.3812 42.2673Z" fill="#00D9ED"/>
<path d="M143.619 43.1965C128.106 52.1532 120.349 56.6316 115.529 64.979C110.71 73.3265 110.71 82.2832 110.71 100.197L110.71 101.897C110.71 119.81 110.71 128.767 115.529 131.549C120.349 134.332 128.105 129.853 143.619 120.897L145.091 120.047C160.605 111.09 168.361 106.612 173.181 98.2641C178 89.9166 178 80.9599 178 63.0465V61.3466C178 43.4332 178 34.4765 173.181 31.694C168.361 28.9115 160.605 33.3899 145.091 42.3465L143.619 43.1965Z" fill="white"/>
</svg>
