<svg width="1060" height="1071" viewBox="0 0 1060 1071" fill="none" xmlns="http://www.w3.org/2000/svg">
<g filter="url(#filter0_d_2_17)">
<path d="M538.937 302.37C616.834 302.37 679.982 239.222 679.982 161.325C679.982 83.4279 616.834 20.28 538.937 20.28C461.04 20.28 397.892 83.4279 397.892 161.325C397.892 239.222 461.04 302.37 538.937 302.37Z" fill="url(#paint0_radial_2_17)"/>
</g>
<g filter="url(#filter1_d_2_17)">
<path d="M239.217 320C307.376 320 362.631 264.746 362.631 196.586C362.631 128.426 307.376 73.1718 239.217 73.1718C171.057 73.1718 115.802 128.426 115.802 196.586C115.802 264.746 171.057 320 239.217 320Z" fill="url(#paint1_radial_2_17)"/>
</g>
<g filter="url(#filter2_d_2_17)">
<path d="M838.658 320C906.817 320 962.072 264.746 962.072 196.586C962.072 128.426 906.817 73.1718 838.658 73.1718C770.498 73.1718 715.243 128.426 715.243 196.586C715.243 264.746 770.498 320 838.658 320Z" fill="url(#paint2_radial_2_17)"/>
</g>
<g filter="url(#filter3_d_2_17)">
<path d="M45.28 584.459C45.28 477.352 132.109 390.523 239.217 390.523C299.584 390.523 353.509 418.104 389.077 461.352C416.618 494.838 433.153 537.717 433.153 584.459C433.153 631.202 416.618 674.081 389.077 707.567C397.021 717.227 405.881 726.104 415.523 734.067L532.662 863.876L401.549 995.11C394.662 1002 383.491 1002 376.605 995.11L115.802 734.067C72.7309 698.496 45.28 644.684 45.28 584.459Z" fill="url(#paint3_radial_2_17)"/>
</g>
<g filter="url(#filter4_d_2_17)">
<path d="M821.027 390.523C928.135 390.523 1014.96 477.352 1014.96 584.459C1014.96 644.684 987.513 698.496 944.441 734.067L675.47 994.874C668.302 1001.82 656.798 1001.44 650.109 994.027L532.661 863.876L662.351 734.067C668.564 728.935 674.453 723.424 679.982 717.569C712.771 682.836 732.874 635.995 732.874 584.459C732.874 532.923 712.771 486.082 679.982 451.35C715.34 413.897 765.453 390.523 821.027 390.523Z" fill="url(#paint4_radial_2_17)"/>
</g>
<g filter="url(#filter5_d_2_17)">
<path d="M532.662 863.876L415.523 734.067C405.881 726.104 397.021 717.227 389.077 707.567C361.536 674.081 345 631.202 345 584.459C345 537.717 361.536 494.838 389.077 461.352C424.645 418.104 478.57 390.523 538.937 390.523C594.51 390.523 644.624 413.897 679.982 451.35C712.771 486.082 732.874 532.923 732.874 584.459C732.874 635.995 712.771 682.836 679.982 717.569C674.455 723.424 668.564 728.935 662.351 734.067L532.662 863.876Z" fill="url(#paint5_radial_2_17)"/>
</g>
<defs>
<filter id="filter0_d_2_17" x="352.892" y="0.279999" width="372.09" height="372.09" filterUnits="userSpaceOnUse" color-interpolation-filters="sRGB">
<feFlood flood-opacity="0" result="BackgroundImageFix"/>
<feColorMatrix in="SourceAlpha" type="matrix" values="0 0 0 0 0 0 0 0 0 0 0 0 0 0 0 0 0 0 127 0" result="hardAlpha"/>
<feOffset dy="25"/>
<feGaussianBlur stdDeviation="22.5"/>
<feComposite in2="hardAlpha" operator="out"/>
<feColorMatrix type="matrix" values="0 0 0 0 0 0 0 0 0 0 0 0 0 0 0 0 0 0 0.25 0"/>
<feBlend mode="normal" in2="BackgroundImageFix" result="effect1_dropShadow_2_17"/>
<feBlend mode="normal" in="SourceGraphic" in2="effect1_dropShadow_2_17" result="shape"/>
</filter>
<filter id="filter1_d_2_17" x="70.8024" y="53.1718" width="336.829" height="336.829" filterUnits="userSpaceOnUse" color-interpolation-filters="sRGB">
<feFlood flood-opacity="0" result="BackgroundImageFix"/>
<feColorMatrix in="SourceAlpha" type="matrix" values="0 0 0 0 0 0 0 0 0 0 0 0 0 0 0 0 0 0 127 0" result="hardAlpha"/>
<feOffset dy="25"/>
<feGaussianBlur stdDeviation="22.5"/>
<feComposite in2="hardAlpha" operator="out"/>
<feColorMatrix type="matrix" values="0 0 0 0 0 0 0 0 0 0 0 0 0 0 0 0 0 0 0.25 0"/>
<feBlend mode="normal" in2="BackgroundImageFix" result="effect1_dropShadow_2_17"/>
<feBlend mode="normal" in="SourceGraphic" in2="effect1_dropShadow_2_17" result="shape"/>
</filter>
<filter id="filter2_d_2_17" x="670.243" y="53.1718" width="336.828" height="336.829" filterUnits="userSpaceOnUse" color-interpolation-filters="sRGB">
<feFlood flood-opacity="0" result="BackgroundImageFix"/>
<feColorMatrix in="SourceAlpha" type="matrix" values="0 0 0 0 0 0 0 0 0 0 0 0 0 0 0 0 0 0 127 0" result="hardAlpha"/>
<feOffset dy="25"/>
<feGaussianBlur stdDeviation="22.5"/>
<feComposite in2="hardAlpha" operator="out"/>
<feColorMatrix type="matrix" values="0 0 0 0 0 0 0 0 0 0 0 0 0 0 0 0 0 0 0.25 0"/>
<feBlend mode="normal" in2="BackgroundImageFix" result="effect1_dropShadow_2_17"/>
<feBlend mode="normal" in="SourceGraphic" in2="effect1_dropShadow_2_17" result="shape"/>
</filter>
<filter id="filter3_d_2_17" x="0.279999" y="370.523" width="577.382" height="699.757" filterUnits="userSpaceOnUse" color-interpolation-filters="sRGB">
<feFlood flood-opacity="0" result="BackgroundImageFix"/>
<feColorMatrix in="SourceAlpha" type="matrix" values="0 0 0 0 0 0 0 0 0 0 0 0 0 0 0 0 0 0 127 0" result="hardAlpha"/>
<feOffset dy="25"/>
<feGaussianBlur stdDeviation="22.5"/>
<feComposite in2="hardAlpha" operator="out"/>
<feColorMatrix type="matrix" values="0 0 0 0 0 0 0 0 0 0 0 0 0 0 0 0 0 0 0.25 0"/>
<feBlend mode="normal" in2="BackgroundImageFix" result="effect1_dropShadow_2_17"/>
<feBlend mode="normal" in="SourceGraphic" in2="effect1_dropShadow_2_17" result="shape"/>
</filter>
<filter id="filter4_d_2_17" x="487.661" y="370.523" width="572.303" height="699.323" filterUnits="userSpaceOnUse" color-interpolation-filters="sRGB">
<feFlood flood-opacity="0" result="BackgroundImageFix"/>
<feColorMatrix in="SourceAlpha" type="matrix" values="0 0 0 0 0 0 0 0 0 0 0 0 0 0 0 0 0 0 127 0" result="hardAlpha"/>
<feOffset dy="25"/>
<feGaussianBlur stdDeviation="22.5"/>
<feComposite in2="hardAlpha" operator="out"/>
<feColorMatrix type="matrix" values="0 0 0 0 0 0 0 0 0 0 0 0 0 0 0 0 0 0 0.25 0"/>
<feBlend mode="normal" in2="BackgroundImageFix" result="effect1_dropShadow_2_17"/>
<feBlend mode="normal" in="SourceGraphic" in2="effect1_dropShadow_2_17" result="shape"/>
</filter>
<filter id="filter5_d_2_17" x="300" y="370.523" width="477.873" height="563.354" filterUnits="userSpaceOnUse" color-interpolation-filters="sRGB">
<feFlood flood-opacity="0" result="BackgroundImageFix"/>
<feColorMatrix in="SourceAlpha" type="matrix" values="0 0 0 0 0 0 0 0 0 0 0 0 0 0 0 0 0 0 127 0" result="hardAlpha"/>
<feOffset dy="25"/>
<feGaussianBlur stdDeviation="22.5"/>
<feComposite in2="hardAlpha" operator="out"/>
<feColorMatrix type="matrix" values="0 0 0 0 0 0 0 0 0 0 0 0 0 0 0 0 0 0 0.25 0"/>
<feBlend mode="normal" in2="BackgroundImageFix" result="effect1_dropShadow_2_17"/>
<feBlend mode="normal" in="SourceGraphic" in2="effect1_dropShadow_2_17" result="shape"/>
</filter>
<radialGradient id="paint0_radial_2_17" cx="0" cy="0" r="1" gradientUnits="userSpaceOnUse" gradientTransform="translate(459.599 64.3565) rotate(57.8043) scale(281.263)">
<stop stop-color="#55DBFC"/>
<stop offset="1" stop-color="#33B9EE"/>
</radialGradient>
<radialGradient id="paint1_radial_2_17" cx="0" cy="0" r="1" gradientUnits="userSpaceOnUse" gradientTransform="translate(168.694 117.248) rotate(55.1755) scale(246.985)">
<stop stop-color="#C39BFD"/>
<stop offset="1" stop-color="#3B81E3"/>
</radialGradient>
<radialGradient id="paint2_radial_2_17" cx="0" cy="0" r="1" gradientUnits="userSpaceOnUse" gradientTransform="translate(785.766 99.6177) rotate(56.8887) scale(242.059)">
<stop stop-color="#36C8D9"/>
<stop offset="1" stop-color="#1D77B4"/>
</radialGradient>
<radialGradient id="paint3_radial_2_17" cx="0" cy="0" r="1" gradientUnits="userSpaceOnUse" gradientTransform="translate(106.987 443.415) rotate(46.7715) scale(604.926 477.788)">
<stop offset="0.166667" stop-color="#CC98FD"/>
<stop offset="1" stop-color="#2975CB"/>
</radialGradient>
<radialGradient id="paint4_radial_2_17" cx="0" cy="0" r="1" gradientUnits="userSpaceOnUse" gradientTransform="translate(732.874 443.415) rotate(78.518) scale(575.701 449.967)">
<stop stop-color="#30BDD5"/>
<stop offset="1" stop-color="#126FA2"/>
</radialGradient>
<radialGradient id="paint5_radial_2_17" cx="0" cy="0" r="1" gradientUnits="userSpaceOnUse" gradientTransform="translate(406.707 452.23) rotate(52.3524) scale(389.672 319.304)">
<stop stop-color="#50E4FF"/>
<stop offset="1" stop-color="#33C0F5"/>
</radialGradient>
</defs>
</svg>
