<svg xmlns="http://www.w3.org/2000/svg" width="600" height="600" xml:space="preserve"><g><g transform="matrix(30 0 0 30 300 300)"><linearGradient id="a" gradientUnits="userSpaceOnUse" x1="14.2" y1="9.1" x2="10.9" y2="22.6"><stop offset="0%" stop-color="#9237e3"/><stop offset="100%" stop-color="#48e6f3"/></linearGradient><path vector-effect="non-scaling-stroke" transform="translate(-12 -12)" d="M12 2C6.477 2 2 6.477 2 12v10h10c5.523 0 10-4.477 10-10S17.523 2 12 2Zm0 6.5a3.5 3.5 0 1 1 0 7H8.5V12A3.5 3.5 0 0 1 12 8.5Z" fill="url(#a)"/></g><g transform="matrix(30 0 0 30 300 449.995)"><linearGradient id="b" gradientUnits="userSpaceOnUse" x1="8.5" y1="20.5" x2="17.3" y2="18.5"><stop offset="0%" stop-color="#51e6ff"/><stop offset="100%" stop-color="#71d4ff" stop-opacity="0"/></linearGradient><path vector-effect="non-scaling-stroke" transform="translate(-12 -17)" d="M22 12c0 5.523-4.477 10-10 10H2a6.5 6.5 0 0 1 6.5-6.5H12a3.5 3.5 0 0 0 3.5-3.5H22Z" fill="url(#b)"/></g><g transform="matrix(30 0 0 30 300 449.995)"><radialGradient id="c" gradientUnits="userSpaceOnUse" gradientTransform="matrix(4 2.75 -4.83 7.03 5.5 17.75)" cx="0" cy="0" r="1" fx="0" fy="0"><stop offset="0%" stop-opacity=".56"/><stop offset="70%" stop-opacity="0"/></radialGradient><path vector-effect="non-scaling-stroke" transform="translate(-12 -17)" d="M22 12c0 5.523-4.477 10-10 10H2a6.5 6.5 0 0 1 6.5-6.5H12a3.5 3.5 0 0 0 3.5-3.5H22Z" fill="url(#c)"/></g><g transform="matrix(30 0 0 30 300 449.995)"><radialGradient id="d" gradientUnits="userSpaceOnUse" gradientTransform="matrix(7.4 4.6 -8.08 13.01 4.3 17)" cx="0" cy="0" r="1" fx="0" fy="0"><stop offset="33%" stop-opacity=".15"/><stop offset="60%" stop-opacity="0"/></radialGradient><path vector-effect="non-scaling-stroke" transform="translate(-12 -17)" d="M22 12c0 5.523-4.477 10-10 10H2a6.5 6.5 0 0 1 6.5-6.5H12a3.5 3.5 0 0 0 3.5-3.5H22Z" fill="url(#d)"/></g><g transform="matrix(30 0 0 30 256.463 300)"><linearGradient id="e" gradientUnits="userSpaceOnUse" x1="6.1" y1="12.7" x2="11.2" y2="5.5"><stop offset="0%" stop-color="#6e06e9"/><stop offset="100%" stop-color="#ab5add" stop-opacity="0"/></linearGradient><path vector-effect="non-scaling-stroke" transform="translate(-10.55 -12)" d="M12 2C6.477 2 2 6.477 2 12v10a6.5 6.5 0 0 0 6.5-6.48l.02-.02H8.5V12a3.5 3.5 0 0 1 6-2.46l4.6-4.58A9.97 9.97 0 0 0 12 2Z" fill="url(#e)"/></g><g transform="matrix(30 0 0 30 256.463 300)"><radialGradient id="f" gradientUnits="userSpaceOnUse" gradientTransform="matrix(13.4 -2.3 6.05 35.23 .3 8.2)" cx="0" cy="0" r="1" fx="0" fy="0"><stop offset="0%" stop-color="#6d05e8"/><stop offset="100%" stop-color="#6d05e8" stop-opacity="0"/></radialGradient><path vector-effect="non-scaling-stroke" transform="translate(-10.55 -12)" d="M12 2C6.477 2 2 6.477 2 12v10a6.5 6.5 0 0 0 6.5-6.48l.02-.02H8.5V12a3.5 3.5 0 0 1 6-2.46l4.6-4.58A9.97 9.97 0 0 0 12 2Z" fill="url(#f)"/></g></g></svg>