<?xml version="1.0" encoding="UTF-8"?>
<svg id="a" data-name="Слой 1" xmlns="http://www.w3.org/2000/svg" width="500" height="484" xmlns:xlink="http://www.w3.org/1999/xlink" viewBox="0 0 500 484">
  <defs>
    <style>
      .l {
        fill: #fff;
      }

      .m {
        fill: url(#g);
        fill-opacity: .8;
      }

      .n {
        fill: url(#c);
      }

      .o {
        fill: url(#h);
      }

      .p {
        fill: url(#j);
      }

      .q {
        fill: url(#k);
        fill-opacity: .3;
      }

      .r {
        fill: url(#d);
        fill-opacity: .5;
      }

      .s {
        fill: url(#e);
      }

      .t {
        fill: url(#i);
      }

      .u {
        fill: url(#f);
      }

      .v {
        fill: url(#b);
      }
    </style>
    <linearGradient id="b" data-name="Безымянный градиент" x1="373.79" y1="354.73" x2="77.33" y2="71.12" gradientTransform="translate(0 486) scale(1 -1)" gradientUnits="userSpaceOnUse">
      <stop offset=".06" stop-color="#ff7f48"/>
      <stop offset="1" stop-color="#e5495b"/>
    </linearGradient>
    <radialGradient id="c" data-name="Безымянный градиент 2" cx="-719.82" cy="799.2" fx="-719.82" fy="799.2" r="12.9" gradientTransform="translate(-54614.71 -16509.86) rotate(134.99) scale(37.65 -63.37) skewX(.02)" gradientUnits="userSpaceOnUse">
      <stop offset=".15" stop-color="#aa1d2d"/>
      <stop offset=".38" stop-color="#d12b18" stop-opacity=".44"/>
      <stop offset=".6" stop-color="#ff3c00" stop-opacity="0"/>
    </radialGradient>
    <radialGradient id="d" data-name="Безымянный градиент 3" cx="-700.46" cy="769.02" fx="-700.46" fy="769.02" r="12.9" gradientTransform="translate(43767.69 34726.08) rotate(-25.29) scale(35.69 -64.66) skewX(.02)" gradientUnits="userSpaceOnUse">
      <stop offset=".41" stop-color="#ff66fb"/>
      <stop offset="1" stop-color="#ea3d01" stop-opacity="0"/>
    </radialGradient>
    <linearGradient id="e" data-name="Безымянный градиент 4" x1="256.5" y1="254.07" x2="516.91" y2="447.08" gradientTransform="translate(0 486) scale(1 -1)" gradientUnits="userSpaceOnUse">
      <stop offset=".31" stop-color="#ff6e30"/>
      <stop offset=".63" stop-color="#ffa05c"/>
    </linearGradient>
    <radialGradient id="f" data-name="Безымянный градиент 5" cx="-667.25" cy="768.09" fx="-667.25" fy="768.09" r="12.9" gradientTransform="translate(12406.96 20964.84) rotate(11.84) scale(24.24 -23.11)" gradientUnits="userSpaceOnUse">
      <stop offset=".79" stop-color="#ffa05c" stop-opacity="0"/>
      <stop offset=".9" stop-color="#ffce84"/>
    </radialGradient>
    <radialGradient id="g" data-name="Безымянный градиент 6" cx="-687.33" cy="742.48" fx="-687.33" fy="742.48" r="12.9" gradientTransform="translate(23858.93 5570.86) rotate(-33.2) scale(24.48 -23.41) skewX(.01)" gradientUnits="userSpaceOnUse">
      <stop offset=".3" stop-color="#ff99e9"/>
      <stop offset=".73" stop-color="#ff99e9" stop-opacity="0"/>
    </radialGradient>
    <radialGradient id="h" data-name="Безымянный градиент 7" cx="-700.98" cy="738.88" fx="-700.98" fy="738.88" r="12.9" gradientTransform="translate(25491.83 -1914.93) rotate(-48.87) scale(26.06 -23.8) skewX(.01)" gradientUnits="userSpaceOnUse">
      <stop offset="0" stop-color="#fd6ef9"/>
      <stop offset=".64" stop-color="#f94"/>
      <stop offset=".85" stop-color="#fcc479"/>
    </radialGradient>
    <radialGradient id="i" data-name="Безымянный градиент 8" cx="-694.28" cy="814.18" fx="-694.28" fy="814.18" r="12.9" gradientTransform="translate(-25279.2 5580.18) rotate(98.39) scale(13.27 -29.98)" gradientUnits="userSpaceOnUse">
      <stop offset=".14" stop-color="#ff8d13"/>
      <stop offset=".54" stop-color="#ff7f29" stop-opacity="0"/>
    </radialGradient>
    <radialGradient id="j" data-name="Безымянный градиент 9" cx="-670.64" cy="789.29" fx="-670.64" fy="789.29" r="12.9" gradientTransform="translate(-1898.38 23593.6) rotate(45.01) scale(22.63 -22.63) skewX(-.01)" gradientUnits="userSpaceOnUse">
      <stop offset="0" stop-color="#f8193e"/>
      <stop offset=".94" stop-color="#920616"/>
    </radialGradient>
    <radialGradient id="k" data-name="Безымянный градиент 10" cx="-653.25" cy="845.71" fx="-653.25" fy="845.71" r="12.9" gradientTransform="translate(-10679.63 7671.18) rotate(90) scale(11.2 -12.75)" gradientUnits="userSpaceOnUse">
      <stop offset=".58" stop-color="#ffb055" stop-opacity="0"/>
      <stop offset=".97" stop-color="#fff2be"/>
    </radialGradient>
  </defs>
  <ellipse class="v" cx="258.05" cy="242" rx="241.92" ry="242"/>
  <ellipse class="n" cx="258.05" cy="242" rx="241.92" ry="242"/>
  <ellipse class="r" cx="258.05" cy="242" rx="241.92" ry="242"/>
  <path class="s" d="M258.08,0c133.61,0,241.92,108.35,241.92,242,0,44.46-12.01,86.11-32.93,121.91l3.93-8.71c23.94-53.17-14.97-113.34-73.28-113.3l-96.29.07c-23.94.02-43.36-19.39-43.36-43.33v-96.49c0-58.34-60.22-97.22-113.37-73.19l-7.74,3.5C172.59,11.82,213.96,0,258.08,0Z"/>
  <path class="u" d="M258.08,0c133.61,0,241.92,108.35,241.92,242,0,44.46-12.01,86.11-32.93,121.91l3.93-8.71c23.94-53.17-14.97-113.34-73.28-113.3l-96.29.07c-23.94.02-43.36-19.39-43.36-43.33v-96.49c0-58.34-60.22-97.22-113.37-73.19l-7.74,3.5C172.59,11.82,213.96,0,258.08,0Z"/>
  <path class="m" d="M258.08,0c133.61,0,241.92,108.35,241.92,242,0,44.46-12.01,86.11-32.93,121.91l3.93-8.71c23.94-53.17-14.97-113.34-73.28-113.3l-96.29.07c-23.94.02-43.36-19.39-43.36-43.33v-96.49c0-58.34-60.22-97.22-113.37-73.19l-7.74,3.5C172.59,11.82,213.96,0,258.08,0Z"/>
  <path class="o" d="M258.08,0c133.61,0,241.92,108.35,241.92,242,0,44.46-12.01,86.11-32.93,121.91l3.93-8.71c23.94-53.17-14.97-113.34-73.28-113.3l-96.29.07c-23.94.02-43.36-19.39-43.36-43.33v-96.49c0-58.34-60.22-97.22-113.37-73.19l-7.74,3.5C172.59,11.82,213.96,0,258.08,0Z"/>
  <path class="t" d="M258.08,0c133.61,0,241.92,108.35,241.92,242,0,44.46-12.01,86.11-32.93,121.91l3.93-8.71c23.94-53.17-14.97-113.34-73.28-113.3l-96.29.07c-23.94.02-43.36-19.39-43.36-43.33v-96.49c0-58.34-60.22-97.22-113.37-73.19l-7.74,3.5C172.59,11.82,213.96,0,258.08,0Z"/>
  <rect class="p" y="229.09" width="206.46" height="206.51" rx="41.94" ry="41.94"/>
  <rect class="q" y="229.09" width="206.46" height="206.51" rx="41.94" ry="41.94"/>
  <path class="l" d="M93.16,352.92v38.43h-26.56v-118h41.03c14.69,0,25.88,3.21,33.55,9.63,7.73,6.42,11.6,15.94,11.6,28.55s-4.33,23.15-12.99,30.45c-8.61,7.3-20.17,10.94-34.7,10.94h-11.92ZM93.16,293.75v38.76h11.1c6.58,0,11.65-1.73,15.21-5.18,3.56-3.46,5.35-8.42,5.35-14.89,0-5.98-1.75-10.59-5.26-13.83-3.45-3.24-8.42-4.85-14.88-4.85h-11.51Z"/>
</svg>