<svg width="320" height="320" viewBox="0 0 320 320" fill="none" xmlns="http://www.w3.org/2000/svg">
<path d="M184.046 184.039C237.144 130.94 258.667 66.3734 232.117 39.8243C205.568 13.2752 141.001 34.7975 87.9023 87.8957C34.8039 140.994 13.2815 205.561 39.8307 232.11C66.38 258.659 130.947 237.137 184.046 184.039Z" fill="#7DFAE3"/>
<path d="M39.823 39.8212C-13.2769 92.9208 -13.2769 179.007 39.823 232.107C13.6047 205.889 34.2563 142.588 85.9526 89.8731C86.5871 89.2001 87.2409 88.5463 87.8947 87.8926C88.5483 87.2389 89.2023 86.5849 89.8752 85.9505C142.571 34.2737 205.891 13.603 232.11 39.8212C179.01 -13.2785 92.9133 -13.2689 39.823 39.8212Z" fill="url(#paint0_linear_3410_610)"/>
<path d="M87.8902 280.175C140.99 333.275 227.077 333.275 280.177 280.175C333.267 227.085 333.277 140.989 280.177 87.8896C274.562 82.2748 267.245 78.8041 258.679 77.3523C253.91 76.5255 248.747 76.3236 243.267 76.7274C212.271 78.9771 171.535 100.388 135.962 135.961C100.379 171.543 78.9777 212.27 76.7279 243.266C76.3241 248.746 76.526 253.909 77.3529 258.678C78.8046 267.244 82.2754 274.561 87.8902 280.175Z" fill="url(#paint1_linear_3410_610)"/>
<defs>
<linearGradient id="paint0_linear_3410_610" x1="76" y1="257.246" x2="254" y2="79.2464" gradientUnits="userSpaceOnUse">
<stop stop-color="#3549FF"/>
<stop offset="0.507523" stop-color="#8742EE"/>
<stop offset="1" stop-color="#DD42EE"/>
</linearGradient>
<linearGradient id="paint1_linear_3410_610" x1="76" y1="257.246" x2="254" y2="79.2464" gradientUnits="userSpaceOnUse">
<stop stop-color="#3549FF"/>
<stop offset="0.507523" stop-color="#8742EE"/>
<stop offset="1" stop-color="#DD42EE"/>
</linearGradient>
</defs>
</svg>
