<?xml version="1.0" encoding="utf-8"?>
<!-- Generator: Adobe Illustrator 26.3.1, SVG Export Plug-In . SVG Version: 6.00 Build 0)  -->
<svg version="1.1" id="Слой_1" xmlns="http://www.w3.org/2000/svg" xmlns:xlink="http://www.w3.org/1999/xlink" x="0px" y="0px"
	 width="500px" height="430.8px" viewBox="0 0 500 430.8" style="enable-background:new 0 0 500 430.8;" xml:space="preserve">
<style type="text/css">
	.st0{fill:url(#SVGID_1_);}
	.st1{fill:#FFFFFF;}
</style>
<linearGradient id="SVGID_1_" gradientUnits="userSpaceOnUse" x1="-38.7753" y1="625.2122" x2="-46.4676" y2="632.9045" gradientTransform="matrix(65 0 0 -56 3040 35425.7656)">
	<stop  offset="0" style="stop-color:#6CACF5"/>
	<stop  offset="1" style="stop-color:#0069E0"/>
</linearGradient>
<path class="st0" d="M500,215.4c0,118.4-94.1,215.4-213.5,215.4C139.5,430.8,73,269.7,0,215.4C73,161.3,139.5,0,286.5,0
	C405.9,0.2,500,97.2,500,215.4z"/>
<path class="st1" d="M287.7,252.8c-18.2,0-33-14.7-33-32.8s14.8-32.8,33-32.8c18.2,0,33,14.7,33,32.8S306,252.8,287.7,252.8z
	 M193.4,252.8c-18.2,0-33-14.7-33-32.8s14.8-32.8,33-32.8c18.2,0,33,14.7,33,32.8S211.6,252.8,193.4,252.8z M382.1,252.8
	c-18.2,0-33-14.7-33-32.8s14.8-32.8,33-32.8c18.2,0,33,14.7,33,32.8S400.3,252.8,382.1,252.8z"/>
</svg>
